<svg xmlns="http://www.w3.org/2000/svg" xmlns:xlink="http://www.w3.org/1999/xlink" width="0" height="0"><symbol id="add" viewBox="0 0 40 40"><path d="M40 22.857H22.857V40h-5.714V22.857H0v-5.714h17.143V0h5.714v17.143H40" fill-rule="evenodd"/></symbol>
<symbol id="arrow-down" viewBox="0 0 32 40"><path d="M18.993 29.23V3.168c0-1.744-1.338-3.158-2.988-3.158s-2.988 1.414-2.988 3.158v26.06l-7.91-8.362a2.878 2.878 0 0 0-4.227 0C-.287 22.1-.287 24.1.88 25.332l13.012 13.753c.07.074.143.144.22.21.033.03.068.054.102.08.04.036.08.07.13.104l.13.08c.04.02.08.05.12.07.04.02.09.04.13.07.04.02.08.04.13.06.04.02.09.03.13.05.04.02.09.04.14.05l.13.032.15.04c.05.01.102.015.154.023.044.006.087.015.132.02a2.773 2.773 0 0 0 .59-.002c.042-.006.085-.015.13-.02.052-.01.105-.016.157-.027.05-.01.1-.024.15-.04.046-.01.09-.02.137-.034.05-.015.097-.034.14-.05l.138-.053c.046-.02.09-.04.13-.064l.14-.07c.04-.023.08-.05.12-.075.042-.03.09-.054.13-.085.043-.03.084-.067.13-.1.034-.03.07-.053.11-.084.07-.063.14-.13.21-.2 0 0 4.34-4.59 13.02-13.76.58-.62.873-1.426.873-2.234a3.24 3.24 0 0 0-.875-2.232c-1.17-1.234-3.06-1.234-4.228 0l-7.91 8.367z"/></symbol>
<symbol id="arrow-left" viewBox="0 0 40 32"><path d="M10.78 18.988h26.062C38.586 18.988 40 17.65 40 16s-1.414-2.988-3.158-2.988h-26.06l8.362-7.91c1.233-1.168 1.233-3.06 0-4.227-1.234-1.167-3.233-1.167-4.466 0L.925 13.887c-.074.07-.144.143-.21.22-.03.033-.054.068-.08.102-.036.04-.07.08-.104.13l-.08.13c-.02.04-.05.08-.07.12-.02.04-.04.09-.07.13-.02.04-.04.08-.06.13-.02.04-.03.09-.05.13-.02.04-.04.09-.05.14l-.032.13-.04.15c-.01.05-.015.102-.023.154-.006.044-.015.087-.02.132-.01.095-.015.192-.015.29 0 .104.006.2.017.3.006.042.015.085.02.13.01.052.016.105.027.157.01.05.024.1.04.15.01.046.02.09.034.137.015.05.034.097.05.14l.053.138c.02.046.04.09.064.13l.07.14c.023.04.05.08.075.12.03.042.054.09.085.13.03.043.067.084.1.13.03.034.053.07.084.11.063.07.13.14.2.21 0 0 4.59 4.34 13.76 13.02.62.58 1.426.873 2.234.873s1.616-.292 2.232-.875c1.234-1.17 1.234-3.06 0-4.228l-8.367-7.91z"/></symbol>
<symbol id="arrow-right" viewBox="0 0 40 32"><path d="M29.22 18.988H3.157C1.414 18.988 0 17.65 0 16s1.414-2.988 3.158-2.988h26.06l-8.362-7.91c-1.233-1.168-1.233-3.06 0-4.227 1.234-1.167 3.233-1.167 4.466 0l13.753 13.012c.074.07.144.143.21.22.03.033.054.068.08.102.036.04.07.08.104.13l.08.13c.02.04.05.08.07.12.02.04.04.09.07.13.02.04.04.08.06.13.02.04.03.09.05.13.02.04.04.09.05.14l.032.13.04.15c.01.05.015.102.023.154.006.044.015.087.02.132.01.095.015.192.015.29 0 .104-.006.2-.017.3-.006.042-.015.085-.02.13-.01.052-.016.105-.027.157-.01.05-.024.1-.04.15-.01.046-.02.09-.034.137-.015.05-.034.097-.05.14l-.053.138c-.02.046-.04.09-.064.13l-.07.14c-.023.04-.05.08-.075.12-.03.042-.054.09-.085.13-.03.043-.067.084-.1.13-.03.034-.053.07-.084.11-.063.07-.13.14-.2.21 0 0-4.59 4.34-13.76 13.02-.62.58-1.426.873-2.234.873s-1.616-.292-2.232-.875c-1.234-1.17-1.234-3.06 0-4.228l8.362-7.91z"/></symbol>
<symbol id="arrow-up" viewBox="0 0 32 40"><path d="M13.007 10.77v26.06c0 1.744 1.338 3.158 2.988 3.158s2.988-1.414 2.988-3.157v-26.06l7.91 8.361a2.878 2.878 0 0 0 4.227 0c1.167-1.234 1.167-3.233 0-4.466L18.108.914a2.905 2.905 0 0 0-.22-.21c-.033-.03-.068-.054-.102-.08-.04-.035-.08-.07-.13-.104l-.13-.08c-.04-.02-.08-.05-.12-.07-.04-.02-.09-.04-.13-.07-.04-.02-.08-.04-.13-.06-.04-.02-.09-.03-.13-.05a.578.578 0 0 0-.14-.05l-.13-.032-.15-.04c-.05-.01-.102-.014-.154-.023-.044-.006-.087-.015-.132-.02a2.773 2.773 0 0 0-.59.002c-.042.006-.085.016-.13.02-.052.01-.105.017-.157.027-.05.01-.1.024-.15.04-.046.01-.09.02-.137.034-.05.015-.097.034-.14.05l-.138.053a.985.985 0 0 0-.13.065l-.14.07c-.04.022-.08.05-.12.074-.042.03-.09.054-.13.085-.043.03-.084.067-.13.1-.034.03-.07.053-.11.084-.07.063-.14.13-.21.2 0 0-4.34 4.59-13.02 13.76a3.264 3.264 0 0 0-.873 2.234c0 .808.292 1.616.875 2.232 1.17 1.234 3.06 1.234 4.228 0l7.91-8.367z"/></symbol>
<symbol id="arrows-hor" viewBox="0 0 40 32"><path d="M8.89 24.444h15.554V20H8.89v-6.667L0 22.223l8.89 8.888v-6.664zM40 8.89L31.11 0v6.667H15.557v4.444H31.11v6.67L40 8.888z" fill-rule="evenodd"/></symbol>
<symbol id="basket" viewBox="0 0 40 36"><path d="M28.057 11.112h5.14L26.37.755c-.42-.708-1.345-.95-2.067-.53-.72.41-.967 1.32-.54 2.028l4.294 8.86zM16.18 2.252c.418-.707.18-1.62-.54-2.03-.722-.41-1.648-.175-2.066.533L6.746 11.12h5.14l4.294-8.867zm21.172 9.93H2.566C1.148 12.182 0 13.31 0 14.702V17.5c0 1.392 1.148 2.52 2.566 2.52h.803l2.47 13.184c.31 1.554 1.752 2.786 3.252 2.786H30.31c1.5 0 2.944-1.232 3.256-2.786l2.49-13.192h1.305c1.42 0 2.57-1.128 2.57-2.52v-2.796c-.01-1.385-1.155-2.513-2.573-2.513zM15.148 25.36v5.685c0 .814-.673 1.426-1.45 1.426-.83 0-1.452-.66-1.452-1.42v-7.973c0-.813.672-1.425 1.45-1.425.83 0 1.452.66 1.452 1.425v2.287zm6.295 0v5.685c0 .814-.673 1.426-1.45 1.426-.83 0-1.452-.66-1.452-1.42v-7.973c0-.813.678-1.425 1.457-1.425.778 0 1.45.66 1.45 1.425v2.287zm6.32 3.3v2.385c0 .765-.624 1.426-1.452 1.426-.772 0-1.45-.61-1.45-1.42v-7.98c0-.764.678-1.424 1.45-1.424.78 0 1.457.612 1.457 1.425v5.59z"/></symbol>
<symbol id="cart" viewBox="0 0 40 40"><path d="M39.576 11.23c.353.447.486.984.398 1.61l-1.677 9.76c-.06.508-.287.926-.684 1.254-.397.328-.846.492-1.346.492H11.82l-.486 2.776h23.3c.56 0 1.044.2 1.456.604.412.403.618.903.618 1.5s-.206 1.097-.618 1.5c-.412.402-.897.604-1.456.604H8.864c-.62 0-1.148-.254-1.59-.76-.41-.508-.573-1.09-.485-1.747l1.1-6.088-1.676-17.1L1.45 4.11C.89 3.932.486 3.59.236 3.082c-.25-.507-.3-1.044-.154-1.61C.258.902.604.49 1.12.24c.514-.254 1.036-.306 1.565-.157l6.09 1.97c.382.12.7.343.95.67.25.33.403.703.462 1.12l.353 3.403 27.624 3.133c.618.09 1.09.37 1.412.85zm-27.58 22.28c.883 0 1.633.312 2.25.94.62.625.928 1.387.928 2.282s-.31 1.664-.927 2.306c-.618.64-1.368.962-2.25.962-.883 0-1.633-.32-2.25-.962-.62-.642-.928-1.41-.928-2.306 0-.895.306-1.656.924-2.283.618-.63 1.368-.94 2.25-.94zm18.843 0c.88 0 1.63.312 2.25.94.615.625.924 1.387.924 2.282s-.31 1.664-.926 2.306c-.62.64-1.37.962-2.25.962-.885 0-1.635-.32-2.25-.962-.62-.642-.93-1.41-.93-2.306 0-.895.31-1.656.928-2.283.616-.63 1.366-.94 2.25-.94z"/></symbol>
<symbol id="cart-inv" viewBox="0 0 40 40"><path d="M4.443 0C2 0 0 2 0 4.443v31.114C0 38 2 40 4.443 40h31.114C38 40 40 38 40 35.557V4.443C40 2 38 0 35.557 0H4.443zm2.885 6.008c.183-.018.367 0 .553.053l4.27 1.38c.27.08.49.24.666.47.175.23.283.49.324.78l.25 2.39 19.34 2.195c.43.06.756.26.982.593.248.316.338.69.278 1.13l-1.173 6.83c-.04.357-.2.648-.48.878-.278.23-.59.347-.94.347h-17.12l-.34 1.94h16.31c.39 0 .73.143 1.02.426.29.28.433.63.433 1.05 0 .417-.144.77-.433 1.05-.288.28-.628.424-1.02.424h-18.04c-.43 0-.802-.176-1.11-.53-.29-.355-.402-.76-.34-1.22l.77-4.26L10.35 9.95 7.017 8.88c-.39-.125-.677-.366-.852-.72-.175-.357-.21-.734-.107-1.13.124-.397.366-.684.726-.86.18-.09.362-.144.545-.162zm7.068 23.45c.618 0 1.144.22 1.577.657.432.44.65.972.65 1.598 0 .627-.218 1.164-.65 1.613-.433.45-.96.676-1.577.676s-1.14-.225-1.574-.674c-.432-.45-.65-.986-.65-1.613 0-.626.218-1.16.65-1.598.433-.44.957-.658 1.574-.658v-.01zm13.192 0c.618 0 1.14.22 1.574.657.432.44.65.972.65 1.598 0 .627-.214 1.164-.646 1.613-.433.45-.958.676-1.576.676-.618 0-1.144-.225-1.576-.674-.432-.45-.65-.986-.65-1.613 0-.626.217-1.16.65-1.598.432-.44.96-.658 1.576-.658l-.002-.01z" fill-rule="evenodd"/></symbol>
<symbol id="chart-bar" viewBox="0 0 40 40.000001"><path d="M18.175 30.957h3.654c1.01 0 1.82-.82 1.82-1.825V13.91c0-1.01-.82-1.825-1.825-1.825H18.17c-1.01 0-1.824.82-1.824 1.825v15.222c-.004 1.01.815 1.825 1.825 1.825zm10.35 0h3.655c1.01 0 1.825-.82 1.825-1.825v-6.696c0-1.01-.82-1.826-1.825-1.826h-3.654c-1.01 0-1.826.82-1.826 1.826v6.696c-.004 1.01.816 1.825 1.826 1.825zm9.437 1.83H2.038c-.84 0-1.523.68-1.523 1.522v.604c0 .84.68 1.523 1.523 1.523h35.924c.84 0 1.523-.68 1.523-1.523v-.61c0-.842-.68-1.522-1.523-1.522zm-30.138-1.83h3.654c1.01 0 1.826-.82 1.826-1.825V5.384c0-1.01-.82-1.825-1.826-1.825H7.824C6.814 3.56 6 4.373 6 5.38v23.75c-.005 1.01.814 1.826 1.824 1.826z"/></symbol>
<symbol id="chart-bar-2" viewBox="0 0 40 40"><path d="M5.5 12h5c.83 0 1.5.67 1.5 1.5v15c0 .83-.67 1.5-1.5 1.5h-5c-.83 0-1.5-.67-1.5-1.5v-15c0-.83.67-1.5 1.5-1.5zm12 6h5c.83 0 1.5.67 1.5 1.5v9c0 .83-.67 1.5-1.5 1.5h-5c-.83 0-1.5-.67-1.5-1.5v-9c0-.83.67-1.5 1.5-1.5zm12-14h5c.83 0 1.5.67 1.5 1.5v23c0 .83-.67 1.5-1.5 1.5h-5c-.83 0-1.5-.67-1.5-1.5v-23c0-.83.67-1.5 1.5-1.5zM2 32h36c.83 0 1.5.67 1.5 1.5v1c0 .83-.67 1.5-1.5 1.5H2c-.83 0-1.5-.67-1.5-1.5v-1c0-.83.67-1.5 1.5-1.5z"/></symbol>
<symbol id="chart-line" viewBox="0 0 40 40"><path d="M35.556 0H4.444C2 0 0 2 0 4.444v31.112C0 38 2 40 4.444 40h31.112C38 40 40 38 40 35.556V4.444C40 2 38 0 35.556 0zm0 16L22.222 31.11l-8.89-8.888-8.888 8.89v-6.668l8.89-8.888 8.888 8.888 13.334-15.11V16z" fill-rule="evenodd"/></symbol>
<symbol id="chart-pie" viewBox="0 0 40 40.000001"><path d="M18.96 20.588l9.88 17.116c-2.656 1.324-5.64 2.086-8.81 2.086C9.086 39.79.21 30.915.21 19.97.21 9.44 8.425.853 18.793.21v19.76c0 .21.055.424.167.618zm20.83-1.858H21.27V.21c9.955.617 17.903 8.565 18.52 18.52zm-16.042-2.478h13.2c-1.438-6.58-6.62-11.762-13.2-13.2v13.2zm7.244 20.225c5.016-3.336 8.404-8.896 8.798-15.27H22.178l8.814 15.27z"/></symbol>
<symbol id="chart-pie-2" viewBox="0 0 40 40"><path d="M20 0C8.954 0 0 8.954 0 20s8.954 20 20 20 20-8.954 20-20S31.046 0 20 0zM4 20c0-8.836 7.163-16 16-16v16L6.194 9.048c-1.49-1.49-1.067-.01-2.522 4.76C2.296 18.312 4 22.148 4 20z"/></symbol>
<symbol id="check" viewBox="0 0 40 32"><path d="M15.385 19.2l-9.23-9.6L0 16l15.385 16L40 6.4 33.846 0"/></symbol>
<symbol id="check-inv" viewBox="0 0 40 40"><path d="M20 40C8.954 40 0 31.046 0 20S8.954 0 20 0s20 8.954 20 20-8.954 20-20 20zm-4.412-17.06l-5.06-5.058L7 21.412 15.588 30l16.47-16.47L28.53 10 15.59 22.94z"/></symbol>
<symbol id="chevron-down" viewBox="0 0 40 26"><path d="M0 5.115l4.667-4.8L20 16.085 35.333.315 40 5.115l-20 20.57"/></symbol>
<symbol id="chevron-left" viewBox="0 0 26 40"><path d="M21.2 0L26 4.667 10.23 20 26 35.333 21.2 40 .63 20" fill-rule="evenodd"/></symbol>
<symbol id="chevron-right" viewBox="0 0 26 40"><path d="M4.8 40L0 35.333 15.77 20 0 4.667 4.8 0l20.57 20"/></symbol>
<symbol id="chevron-up" viewBox="0 0 40 26"><path d="M40 20.885l-4.667 4.8L20 9.915 4.667 25.685 0 20.885 20 .315"/></symbol>
<symbol id="circle" viewBox="0 0 40 40"><circle cx="20" cy="20" r="20" /></symbol>
<symbol id="close" viewBox="0 0 40 40"><path d="M40 4l-4-4-16 16L4 0 0 4l16 16L0 36l4 4 16-16 16 16 4-4-16-16" fill-rule="evenodd"/></symbol>
<symbol id="copy" viewBox="0 0 40 40"><path d="M4.444 8.89v26.666H31.11V40H4.445C2 40 0 38 0 35.556V8.89h4.444zM13 0h23c2.21 0 4 1.79 4 4v23c0 2.21-1.79 4-4 4H13c-2.21 0-4-1.79-4-4V4c0-2.21 1.79-4 4-4z" fill-rule="evenodd"/></symbol>
<symbol id="delete" viewBox="0 0 36 40"><path d="M35.704 6.893c-.153-.155-.348-.234-.586-.234h-7.88L25.45 2.31c-.255-.642-.714-1.188-1.377-1.64C23.41.226 22.74 0 22.06 0h-8.162c-.68 0-1.352.225-2.015.676-.663.45-1.122.997-1.377 1.64L8.72 6.658H.84c-.238 0-.433.078-.587.233-.152.16-.23.36-.23.6v1.67c0 .25.077.45.23.6.154.16.35.24.587.24h2.448v24.76c0 1.44.4 2.67 1.2 3.68.798 1.02 1.76 1.527 2.88 1.527h21.22c1.123 0 2.084-.524 2.883-1.573.8-1.05 1.2-2.29 1.2-3.73V9.99h2.45c.24 0 .44-.08.59-.235.16-.156.23-.356.23-.598V7.492c0-.243-.07-.443-.23-.6zM13.516 3.615c.12-.156.263-.25.433-.286h8.08c.17.03.31.13.43.28l1.22 3.04H12.26l1.25-3.05zm15.89 31.036c0 .39-.06.74-.18 1.06-.12.32-.242.56-.37.7-.127.15-.216.22-.267.22H7.37c-.052 0-.14-.07-.27-.22-.126-.14-.25-.38-.37-.7-.118-.32-.177-.67-.177-1.05V9.99h22.852v24.66z"/><path d="M10.634 31.633h1.632c.238 0 .434-.078.587-.234.152-.16.23-.36.23-.6V15.81c0-.243-.078-.442-.23-.598-.153-.156-.35-.234-.587-.234h-1.632c-.238 0-.434.08-.587.235-.153.156-.23.355-.23.598V30.8c0 .244.077.443.23.6.153.155.35.233.587.233zm6.53 0h1.63c.24 0 .435-.078.587-.234.16-.16.23-.36.23-.6V15.81c0-.243-.07-.442-.23-.598-.15-.156-.34-.234-.58-.234h-1.63c-.23 0-.43.08-.58.235-.15.156-.23.355-.23.598V30.8c0 .244.08.443.23.6.156.155.35.233.59.233zm6.528 0h1.632c.238 0 .434-.078.587-.234.16-.16.23-.36.23-.6V15.81c0-.243-.07-.442-.23-.598-.15-.156-.34-.234-.58-.234H23.7c-.238 0-.433.08-.587.235-.153.156-.23.355-.23.598V30.8c0 .244.077.443.23.6.154.155.35.233.587.233z"/></symbol>
<symbol id="delivery" viewBox="0 0 40 34"><path d="M.46.515C.764.21 1.125.057 1.54.057h24.568c.416 0 .776.153 1.08.458.303.305.455.666.455 1.084v4.62h3.84c.43 0 .9.1 1.403.31.504.21.908.46 1.21.77l4.752 4.77c.208.21.388.45.54.72.152.27.264.51.336.73.072.21.124.51.155.89.03.38.05.65.06.83v.91c-.01.433-.02.713-.02.842.03 7.196.01 10.797-.05 10.802-.1.01-.64.01-.95 0-.31-.008-.49-.01-.54-.01h-1.53c0 1.7-.6 3.154-1.8 4.36-1.2 1.203-2.65 1.805-4.34 1.805-1.7 0-3.15-.603-4.34-1.807-1.2-1.207-1.8-2.66-1.8-4.36h-9.21c0 1.7-.6 3.153-1.8 4.36-1.2 1.202-2.65 1.804-4.35 1.804-1.7 0-3.147-.605-4.347-1.81-1.2-1.206-1.8-2.66-1.8-4.36-.047 0-.227.003-.538.01-.313.01-.517.01-.613 0l-.54-.047c-.262-.022-.45-.07-.562-.143-.11-.07-.247-.164-.4-.277-.15-.11-.26-.26-.323-.445s-.09-.38-.09-.62V1.6C0 1.18.154.82.457.515zm28.096 29.46c.607.61 1.327.915 2.16.915.83 0 1.55-.306 2.158-.916.608-.61.912-1.333.912-2.168 0-.835-.304-1.558-.912-2.168-.608-.61-1.327-.915-2.16-.915-.83 0-1.55.305-2.158.915-.608.61-.912 1.333-.912 2.168 0 .835.304 1.558.912 2.168zm-.912-14.502h9.213v-.722c0-.2-.072-.38-.216-.53l-4.67-4.69c-.14-.14-.32-.21-.52-.21h-3.79v6.17zM7.06 29.973c.606.61 1.326.917 2.158.917.832 0 1.552-.306 2.16-.916.607-.61.91-1.333.91-2.168 0-.835-.303-1.558-.91-2.168-.608-.61-1.328-.915-2.16-.915-.832 0-1.552.305-2.16.915-.607.61-.91 1.333-.91 2.168 0 .835.302 1.558.91 2.168z"/></symbol>
<symbol id="download" viewBox="0 0 40 39"><path d="M0 35h40v4H0v-4zm17.695-13.27V2.704C17.695 1.43 18.727.4 20 .4c1.273 0 2.306 1.03 2.306 2.304V21.73l6.104-6.105c.9-.9 2.36-.9 3.26 0 .9.9.9 2.36 0 3.26l-10.04 10.04c-.053.054-.11.105-.17.154-.025.02-.052.033-.078.053l-.102.075-.1.06c-.03.02-.06.04-.094.056l-.103.048c-.033.016-.067.033-.1.047-.035.014-.07.026-.103.04l-.11.04c-.035.01-.07.015-.104.024-.04.01-.077.02-.116.028-.04.008-.08.013-.12.018-.034.006-.068.013-.103.016-.074.007-.15.01-.224.01-.08 0-.156-.003-.23-.01-.035-.004-.068-.01-.102-.015-.04-.004-.08-.01-.12-.02-.04-.004-.072-.015-.11-.025-.035-.01-.07-.016-.104-.027-.036-.01-.072-.024-.11-.037-.033-.01-.068-.02-.102-.034-.033-.014-.066-.03-.1-.046-.034-.02-.07-.035-.104-.054-.03-.016-.06-.036-.093-.054l-.1-.06c-.034-.023-.065-.05-.098-.072l-.085-.06c-.057-.047-.11-.095-.163-.146L8.33 18.884c-.45-.45-.675-1.04-.675-1.63 0-.59.225-1.18.675-1.63.9-.9 2.36-.9 3.26 0l6.105 6.105z" fill-rule="evenodd"/></symbol>
<symbol id="edit" viewBox="0 0 40 40"><path d="M39.67 7.894l-3.715 3.716-7.566-7.565-2.87 2.87 7.563 7.566L14.53 33.038 6.963 25.47l-2.87 2.87 7.565 7.566-1.85 1.85-.035-.036c-.205.337-.54.583-.935.67l-7.054 1.574c-.106.024-.214.036-.32.036-.385 0-.76-.152-1.036-.43-.356-.355-.504-.867-.395-1.357l1.573-7.053c.088-.396.335-.73.672-.934l-.036-.036L32.106.328c.437-.437 1.148-.437 1.586 0l5.98 5.98c.437.437.437 1.148 0 1.586z"/></symbol>
<symbol id="elements" viewBox="0 0 40 34"><path d="M10.44 27.672c-.692 0-1.384-.27-1.912-.81L.792 18.955C.285 18.435 0 17.735 0 17c0-.733.285-1.436.792-1.955l7.736-7.908c1.056-1.08 2.768-1.08 3.824 0s1.056 2.83 0 3.91L6.528 17l5.824 5.954c1.056 1.08 1.056 2.83 0 3.91-.528.538-1.22.808-1.912.808zm19.12 0c-.692 0-1.384-.27-1.912-.81-1.056-1.08-1.056-2.83 0-3.91L33.472 17l-5.824-5.954c-1.056-1.08-1.056-2.83 0-3.91s2.768-1.08 3.824 0l7.736 7.91c1.056 1.078 1.056 2.83 0 3.908l-7.736 7.908c-.528.54-1.22.81-1.912.81zM16.908 34c-.173 0-.348-.017-.524-.052-1.465-.295-2.42-1.747-2.132-3.246l5.473-28.47C20.013.734 21.435-.242 22.9.052c1.465.295 2.42 1.748 2.13 3.246l-5.47 28.47C19.304 33.088 18.173 34 16.907 34z"/></symbol>
<symbol id="email" viewBox="0 0 40 32"><path d="M3.836 9.904c-.92-.635-1.792-1.508-2.61-2.618C.41 6.176 0 5.143 0 4.19c0-1.178.31-2.16.926-2.946C1.543.458 2.424.064 3.57.064H36.4c.966 0 1.803.356 2.51 1.067.705.71 1.06 1.57 1.06 2.57 0 1.197-.365 2.338-1.094 3.426-.73 1.088-1.636 2.018-2.72 2.79-5.592 3.943-9.072 6.4-10.44 7.367-.15.106-.465.336-.948.69-.483.357-.885.644-1.204.863-.32.22-.707.462-1.16.734-.453.272-.88.477-1.283.612-.4.134-.77.202-1.11.202h-.04c-.34 0-.712-.07-1.113-.202-.402-.134-.83-.34-1.283-.61-.454-.27-.84-.517-1.16-.736-.32-.22-.72-.505-1.204-.86-.484-.356-.8-.586-.948-.69-1.353-.97-3.3-2.35-5.844-4.14-2.543-1.79-4.07-2.87-4.573-3.23zM26.632 20.15c8.466-6.045 12.913-9.31 13.34-9.793v18c0 .998-.35 1.85-1.05 2.562-.698.71-1.54 1.06-2.52 1.06H3.57c-.983 0-1.823-.36-2.522-1.07C.348 30.21 0 29.35 0 28.35v-18c.654.74 1.405 1.4 2.253 1.977 5.383 3.71 9.078 6.32 11.086 7.82.84.63 1.53 1.13 2.06 1.48.53.352 1.23.72 2.11 1.09.87.37 1.69.55 2.45.55H20c.76 0 1.576-.185 2.453-.555.88-.37 1.58-.733 2.11-1.088.526-.356 1.214-.85 2.06-1.486z"/></symbol>
<symbol id="error" viewBox="0 0 40 40"><path d="M20 40C8.954 40 0 31.046 0 20S8.954 0 20 0s20 8.954 20 20-8.954 20-20 20zm-.466-7c1.903 0 3.534-1.63 3.534-3.534 0-1.903-1.63-3.534-3.534-3.534-1.903 0-3.534 1.63-3.534 3.534S17.63 33 19.534 33zm2.718-10.69V7h-5.436v15.31h5.436z" /></symbol>
<symbol id="feedback" viewBox="0 0 40 36"><path d="M20 0C8.954 0 0 7.31 0 16.323c0 4.268 2.009 8.159 5.297 11.067-.126 2.835-.691 6.645-2.691 8.61 3.82 0 7.731-2.612 10.051-4.493A23.856 23.856 0 0 0 20 32.647c11.046 0 20-7.31 20-16.324C40 7.31 31.046 0 20 0z"/></symbol>
<symbol id="fullscreen" viewBox="0 0 40 40"><path d="M.18 13.678L.008 1.15C0 .514.515-.007 1.145 0L13.52.182c.99.017 1.482 1.226.78 1.938l-3.445 3.486L16.58 11.4l-5.316 5.383-5.726-5.796-3.444 3.486c-.695.704-1.898.207-1.914-.795zm34.282-2.616l-5.726 5.788-5.317-5.382 5.72-5.796-3.44-3.47c-.7-.712-.21-1.92.78-1.937L38.86.083c.63-.008 1.144.513 1.136 1.15l-.18 12.528c-.017 1.01-1.21 1.5-1.915.79l-3.44-3.48zm-8.76 26.818l3.435-3.477-5.726-5.796 5.32-5.382 5.73 5.796 3.44-3.48c.71-.71 1.9-.21 1.92.79L40 38.86c.007.637-.508 1.16-1.138 1.15l-12.377-.18c-.99-.02-1.48-1.228-.78-1.94zM1.144 39.917C.514 39.925 0 39.404 0 38.767L.18 26.24c.016-1.004 1.21-1.5 1.914-.79l3.444 3.487 5.726-5.796 5.317 5.39-5.72 5.8 3.45 3.477c.704.713.21 1.92-.78 1.938l-12.375.18z" fill-rule="evenodd"/></symbol>
<symbol id="gague" viewBox="0 0 40 28"><path d="M22.76 5.31L24.92.5C16.15-1.032 6.78 1.534 0 8.224l3.63 3.588c5.22-5.157 12.32-7.31 19.13-6.503zm-2.216 4.923c-4.794-.143-9.623 1.56-13.282 5.167l3.632 3.587c2.06-2.036 4.64-3.22 7.316-3.578l2.334-5.18zm6.51-9.183c-.32 0-.583.17-.746.412l-.118.26-9.414 20.907c-.29.51-.463 1.09-.463 1.73 0 1.98 1.634 3.593 3.64 3.593 1.753 0 3.205-1.22 3.56-2.843l.008-.062 4.44-23.105c0-.493-.405-.897-.904-.897zm-.22 16.197c.79.493 1.535 1.067 2.216 1.74l3.63-3.587c-1.452-1.435-3.095-2.548-4.838-3.39l-1.007 5.237zm2.97-15.427l-.97 5.05c2.712 1.112 5.263 2.754 7.48 4.942l3.63-3.588c-2.97-2.932-6.446-5.05-10.14-6.403z"/></symbol>
<symbol id="globe" viewBox="0 0 40 40"><path d="M37.318 9.96c-1.788-3.063-4.214-5.49-7.278-7.278C26.975.894 23.63 0 20 0c-3.628 0-6.974.894-10.04 2.682-3.063 1.788-5.49 4.214-7.277 7.28C.893 13.024 0 16.37 0 20s.894 6.975 2.682 10.04c1.79 3.063 4.215 5.49 7.28 7.278C13.025 39.106 16.37 40 20 40s6.975-.894 10.04-2.682c3.064-1.788 5.49-4.215 7.278-7.28C39.106 26.976 40 23.63 40 20s-.894-6.975-2.682-10.04zM22.502 30.524c-.174-.208-.235-.382-.182-.52-.018.086-.08.164-.183.233-.086-.104-.243-.234-.468-.39-.23-.157-.39-.287-.47-.392l-.15-.22-.24-.38c-.1-.155-.17-.29-.21-.403-.05-.11-.05-.176-.02-.193-.33.14-.81.04-1.43-.29-.13-.07-.31-.25-.55-.55-.24-.3-.5-.43-.76-.39-.09.01-.21.04-.36.09-.15.04-.27.06-.38.06-.11 0-.25-.04-.42-.11-.14-.05-.32-.15-.56-.3-.23-.15-.39-.24-.48-.27l-.34-.19-.41-.21c-.11-.05-.22-.14-.33-.25-.11-.12-.19-.23-.22-.35-.04-.11-.08-.32-.13-.63s-.12-.54-.21-.68c-.1-.17-.25-.35-.44-.52-.19-.17-.36-.26-.52-.26.14 0 .14-.12 0-.35s-.26-.41-.37-.51c-.03-.04-.14-.15-.31-.34-.178-.19-.32-.36-.44-.49-.13-.14-.23-.3-.32-.48s-.11-.34-.05-.46c.02-.02 0-.05-.05-.08-.06-.03-.12-.07-.2-.1-.08-.04-.15-.07-.22-.09-.07-.03-.12-.04-.16-.04.035.07.074.19.117.38.046.18.09.31.145.4.04.07.185.32.445.75.45.73.66 1.26.627 1.61-.1.03-.17.02-.204-.05s-.06-.17-.077-.29c-.02-.12-.04-.21-.057-.26-.05-.11-.19-.22-.4-.34-.214-.12-.35-.24-.4-.37.02 0 .04-.01.07-.03.024-.02.05-.03.063-.03.02-.16-.074-.36-.274-.6-.2-.25-.287-.42-.25-.52-.14-.11-.26-.31-.37-.61-.1-.3-.19-.5-.26-.59-.07-.11-.158-.2-.26-.28-.107-.08-.237-.166-.39-.26-.16-.097-.26-.16-.31-.196-.04-.02-.11-.098-.21-.237-.578-.69-.75-1.065-.52-1.12-.23.055-.418-.114-.56-.505-.15-.39-.2-.69-.15-.9l-.05-.025c.017-.07.026-.27.026-.61 0-.34.028-.645.07-.922.048-.275.13-.414.25-.414-.12.02-.21-.09-.27-.325-.06-.24-.065-.4-.01-.48.014-.06.093-.02.23.1.14.12.22.2.236.23.23-.12.314-.28.26-.47-.03-.07-.215-.25-.545-.545-.75-.487-1.13-.72-1.148-.704.1-.193.075-.36-.08-.5-.17.107-.27.13-.3.08-.026-.05-.048-.15-.066-.284-.02-.14-.06-.215-.13-.232-.09-.02-.19-.086-.31-.21C7.42 8.69 9.46 6.77 12 5.38c.102-.02.293-.03.57-.03.14.02.27.06.39.13.122.07.25.17.38.29.13.12.23.21.3.26.033-.1-.01-.26-.13-.47.032-.1.223-.21.57-.31.4-.05.66-.04.783.03-.105-.16-.28-.38-.52-.65l-.13.13c-.14-.12-.505-.06-1.096.18-.032.01-.12.06-.26.14-.14.08-.25.13-.34.17-.1.03-.205.04-.31.02.834-.45 1.65-.81 2.45-1.07.05.04.14.11.26.22.12.12.216.2.286.25-.05-.03-.087-.01-.105.06-.07.21-.07.38 0 .52.09.12.206.19.354.21.15.02.324.01.533-.023.206-.034.345-.05.415-.05l.26.026c.556.05.773 0 .65-.16.053.07.114.21.183.43.07.22.148.37.235.46.088-.07.105-.19.053-.37-.05-.17-.05-.29 0-.36.02-.03.07-.07.16-.1l.3-.12c.11-.044.19-.074.22-.092.11-.07.04-.19-.2-.36-.03-.02-.11-.042-.22-.08-.11-.03-.21-.07-.3-.1-.08-.036-.18-.084-.27-.145-.09-.06-.14-.13-.13-.205.01-.077.06-.177.14-.3.11-.085.28-.12.51-.103.23.02.41.06.53.13.47.26.54.5.21.71.18.017.38.086.63.21.25.12.34.25.29.39.14-.26.28-.39.42-.39.09.015.17.13.25.35.08.216.13.33.14.35.14.19.28.235.42.13.14-.103.28-.255.43-.455.15-.2.23-.29.25-.27-.17-.07-.19-.14-.05-.21.26-.156.5-.2.71-.13.05.034.12.113.21.234.16.316.13.46-.08.446.16.14.22.31.2.52-.02.21-.16.3-.4.283-.08 0-.21-.04-.37-.13-.17-.088-.29-.13-.38-.14-.09-.008-.21.04-.36.144-.066.09-.16.232-.27.44-.114.2-.21.35-.3.44-.26.26-.695.35-1.3.28.05 0 .045.05-.016.157-.06.104-.142.22-.246.35-.104.13-.165.206-.182.22-.15.176-.26.376-.31.6 0 .037-.01.154-.022.35-.014.2-.05.355-.1.46.21-.05.37.054.49.314.105.24.105.37 0 .39.574-.09 1.08-.05 1.51.106.626.225.98.45 1.07.676.1-.16.355-.17.754-.03.158.086.296.347.418.78.07.26.188.487.35.68.167.19.345.24.536.155l.08-.05c.07-.033.126-.064.17-.09.04-.026.09-.06.14-.104.05-.043.088-.08.09-.116.01-.036 0-.07-.04-.105-.12-.11-.21-.25-.27-.43-.06-.187-.05-.348.04-.487.05-.07.19-.17.42-.31.226-.135.365-.273.42-.41.07-.23-.02-.416-.26-.56-.246-.15-.368-.28-.368-.407 0-.09.06-.19.17-.31.114-.12.16-.24.144-.34 0-.058-.03-.16-.09-.33s-.095-.29-.1-.367c-.01-.08.03-.17.113-.274.12-.07.41-.06.86.016s.744.16.883.248c.052.037.164.09.34.16.172.07.324.14.454.22.13.08.21.15.227.22h-.13c.12.104.2.225.22.365.03.14-.04.24-.19.31.1-.013.24.01.41.08.278.107.286.2.026.29.054-.015.13-.03.22-.05.1-.02.17-.043.22-.08.04-.015.08-.045.13-.09.056-.04.095-.07.12-.08l.12-.023c.05-.007.1.01.155.04.017 0 .056-.04.116-.13l.198-.26c.07-.087.13-.13.18-.13.05 0 .1.02.142.07.04.04.072.09.1.14.025.05.05.11.08.17.023.06.044.11.062.14.037.09.12.18.25.27.13.09.213.18.25.27.02.05.056.18.11.39.05.21.12.35.21.43.084.08.214.14.39.193.032.017.11.01.232-.026.12-.03.22-.04.3-.02.08.02.12.087.12.21.104-.105.156-.175.156-.21.02.227.08.41.17.55.1.136.25.2.46.18l-.05.57c-.057.086-.187.15-.39.19-.21.046-.34.086-.397.12-.05.02-.18.12-.38.31s-.28.303-.243.34c-.298-.33-.74-.427-1.33-.29-.66.107-1.11.21-1.357.316-.273.14-.47.27-.57.39-.015.01-.045.07-.09.18-.04.1-.086.2-.13.283-.043.085-.08.13-.116.13.105-.018.22-.1.35-.248.13-.15.215-.23.25-.25.45-.297.82-.4 1.12-.31.38.102.44.24.18.42-.03.03-.123.042-.27.04-.15-.01-.25-.01-.3.01.156.032.286.08.39.14.105.06.13.143.08.25.276.16.33.33.155.52-.23.23-.5.32-.81.29.05 0 .05.033 0 .1l-.447.29c-.036.014-.15.06-.34.13-.19.07-.32.145-.39.232-.05.07-.08.17-.08.31s-.007.24-.025.31c-.016.07-.086.085-.207.05-.053.1-.213.185-.483.245s-.45.15-.53.27c.1.14.09.274-.03.413-.21.173-.39.156-.547-.05-.085.04-.15.12-.194.26-.04.14-.11.23-.196.283.12.19.104.33-.05.42.015 0 .055.02.115.05.06.038.12.08.19.13.07.056.11.08.13.08-.07.158-.164.236-.285.236.107.28-.023.58-.39.91-.07.07-.18.14-.323.21-.147.07-.28.12-.4.17-.12.04-.19.07-.21.09-.176.16-.307.32-.39.48-.09.17-.1.33-.04.483.06.158.22.26.48.31l.025.21V22l.03.208c.015.12.03.23.04.323.005.1.005.22 0 .37-.01.15-.05.23-.12.25-.067.02-.16 0-.285-.05-.14-.07-.304-.45-.495-1.14-.04-.17-.14-.38-.317-.62-.084.09-.16.15-.22.17-.06.03-.103.03-.13.02l-.142-.12c-.07-.06-.13-.11-.18-.14-.09-.05-.24-.09-.46-.13-.214-.03-.35-.07-.4-.13-.42.32-.67.24-.76-.23-.03.09-.03.21.016.35.05.15.07.23.07.25-.12.23-.31.25-.57.05-.1-.1-.34-.11-.714-.04-.372.08-.62.1-.74.04.016 0 .05.03.1.08.056.04.09.06.11.08-.02.07-.047.13-.08.16-.04.04-.07.05-.107.04-.038-.01-.077-.01-.12 0-.044.01-.083.02-.118.04-.07.05-.156.15-.26.28-.104.13-.18.21-.234.25.107.28.15.49.146.64-.01.15-.04.37-.08.65-.046.29-.067.52-.067.695 0 .27.08.6.25.96.162.36.36.613.583.753.12.07.33.115.63.13.294.02.5 0 .624-.05.102-.05.18-.11.232-.18.05-.07.1-.17.13-.3.04-.13.06-.22.08-.273.12-.33.35-.5.68-.52.21-.02.36.01.46.07.092.06.13.14.113.246-.016.107-.05.21-.102.33-.05.11-.113.233-.19.37-.08.14-.127.24-.143.31-.035.14-.066.337-.09.59-.027.25-.05.4-.066.455.035.017.165.025.39.025 0-.04.014-.09.04-.17.025-.08.04-.13.04-.15.086.14.224.22.415.232.19.02.33-.05.42-.205.03.05.14.18.31.39.175.21.27.38.29.52.015.07.05.18.1.34.05.15.07.26.05.32-.02.06-.103.09-.26.09-.07 0-.112.03-.13.08-.02.05-.02.12 0 .196.018.08.04.15.066.22.02.07.06.144.1.223.04.08.06.13.06.147.31.57.74.73 1.275.47 0 .5-.12.78-.36.83-.14.04-.297-.05-.47-.26zm.39 5.883c-.035-.173-.053-.312-.05-.415-.02-.14.042-.325.18-.56.14-.234.21-.412.21-.533-.28-.07-.383-.3-.314-.68.035-.26.286-.61.755-1.04.33-.3.434-.72.313-1.25-.053-.23-.096-.56-.13-.99-.035-.44-.07-.74-.105-.91 0 .05.09.09.25.14.17.04.27.1.3.17.04-.05.08-.15.13-.29.05-.14.11-.25.16-.32.04-.06.11-.12.22-.2.12-.08.19-.13.22-.15.04-.02.12-.07.24-.17s.22-.17.3-.22c.08-.06.19-.1.32-.12.13-.03.22.01.28.11.09.1.07.26-.05.48-.12.21-.12.37 0 .45.02-.05.04-.17.05-.34.02-.17.07-.3.16-.39.1-.11.2-.17.3-.18.1-.02.18-.01.26.04.08.04.17.1.27.18.1.08.2.12.29.14.26.09.58.28.94.57-.01-.02-.01-.04 0-.07.02-.028.06-.05.11-.08s.1-.05.14-.08c.04-.028.09-.05.14-.067l.08-.027c.12 0 .21-.01.26-.024.05-.02.13 0 .22.05s.16.09.2.115c.04.025.1.073.18.143.09.07.15.125.18.16l.29.18.33.21c.08.05.15.13.21.23.06.106.09.22.07.34.11.02.31.09.63.21.05.033.16.064.326.09.16.026.27.065.32.12-2.515 2.655-5.563 4.295-9.14 4.92z" /></symbol>
<symbol id="help" viewBox="0 0 40 40"><path d="M20 0C9 0 0 9 0 20s9 20 20 20 20-9 20-20S31 0 20 0zm0 3c8.837 0 17 8.163 17 17s-8.163 17-17 17S3 28.837 3 20 11.163 3 20 3z"/><path d="M21.748 24.583h-3.5c-.008-.53-.07-.476-.07-.59 0-1.198.18-2.182.544-2.953.364-.772 1.092-1.64 2.183-2.605 1.09-.965 1.743-1.597 1.956-1.896.33-.477.498-.998.498-1.568 0-.79-.293-1.466-.88-2.025-.575-.57-1.356-.854-2.34-.854-.95 0-1.744.294-2.383.882-.638.587-1.077 1.484-1.317 2.69L13 15.76c.098-1.625.772-3.745 2.023-4.95 1.26-1.207 2.91-1.81 4.95-1.81 2.147 0 3.855.613 5.124 1.838C26.367 12.053 27 13.47 27 15.092c0 .897-.235 1.746-.705 2.547-.462.8-1.455 1.89-2.98 3.27-.79.71-1.283 1.283-1.478 1.72-.187.432-.107.83-.09 1.95zM18.248 31v-3.667h3.5V31z"/></symbol>
<symbol id="hide" viewBox="0 0 40 40">	<path d="M39.756 37.4L2.6.243c-.325-.325-.852-.325-1.178 0L.244 1.423c-.325.325-.325.852 0 1.18l6.89 6.89c-3.29 2.602-5.774 6.15-7.094 10.25-.053.166-.053.345 0 .51C2.874 29.076 10.896 35 20 35c3.56 0 6.985-.902 10.043-2.6l7.356 7.356c.32.325.85.325 1.17 0l1.18-1.18c.324-.324.324-.852 0-1.177zM20 31.666c-6.433 0-11.667-5.234-11.667-11.667 0-2.54.833-4.98 2.333-6.98l3.623 3.62c-.6 1.005-.96 2.142-.96 3.352 0 3.675 2.99 6.666 6.662 6.666 1.21 0 2.346-.357 3.353-.956l3.623 3.624c-2 1.5-4.445 2.332-6.977 2.332zm-.703-17.816c-.13.312-.06.673.18.912l5.76 5.762c.16.16.373.244.59.244.11 0 .22-.02.323-.065.312-.132.514-.44.51-.778-.04-3.65-2.934-6.544-6.585-6.585-.332.036-.646.198-.778.51z"/>	<path d="M14.032 9.32c.25.25.632.313.95.162 1.59-.762 3.28-1.15 5.018-1.15 6.433 0 11.667 5.235 11.667 11.668 0 1.738-.387 3.427-1.15 5.02-.15.318-.086.698.164.948l2.89 2.888c.16.156.37.244.59.244.23 0 .44-.09.59-.247 2.37-2.39 4.17-5.365 5.21-8.598.06-.166.06-.345 0-.51C37.13 10.925 29.11 5 20 5c-2.498 0-4.954.444-7.298 1.322-.266.1-.463.326-.523.603-.06.277.02.566.22.766l1.624 1.63z"/></symbol>
<symbol id="history" viewBox="0 0 40 40"><path d="M20 0c11.028 0 20 8.972 20 20s-8.972 20-20 20S0 31.028 0 20 8.972 0 20 0zm0 8.583c-1.183 0-2.143.96-2.143 2.143v7.14h-7.14a2.143 2.143 0 0 0 0 4.286H20c1.183 0 2.143-.96 2.143-2.143v-9.283c0-1.183-.96-2.143-2.143-2.143z"/></symbol>
<symbol id="home" viewBox="0 0 40 36"><path d="M16 36V23h8v13h10V19h6L20 0 0 19h5v17" fill-rule="evenodd"/></symbol>
<symbol id="import" viewBox="0 0 40 40"><path d="M2.244 12.395a2.214 2.214 0 0 0-2.213 2.212v23.079c0 1.22.991 2.212 2.213 2.212H37.73a2.216 2.216 0 0 0 2.217-2.214V14.609a2.216 2.216 0 0 0-2.217-2.214h-9.992a2.216 2.216 0 0 0-1.566 3.779c.415.415.98.648 1.566.648h7.774v18.649H4.465V16.822h7.775a2.214 2.214 0 0 0 0-4.427H2.244z"/><path d="M22.26 25.631V7.361a2.215 2.215 0 0 0-2.217-2.214c-1.224 0-2.218.99-2.218 2.214v18.27l-5.871-5.86a2.22 2.22 0 0 0-3.135 0 2.208 2.208 0 0 0 0 3.13l9.655 9.643c.052.053.107.102.163.148l.077.06c.03.03.06.05.09.07l.18.12c.03.02.062.04.1.05l.092.05c.032.016.065.026.097.038l.108.04c.033.01.066.016.1.024.036.01.073.02.11.027.04.01.077.013.115.02l.097.013c.073.003.145.01.217.01.08 0 .15-.007.22-.01l.1-.02c.037-.005.076-.01.115-.02.037-.004.073-.015.11-.024.034-.01.068-.017.1-.027.037-.01.07-.025.106-.037.03-.01.065-.024.1-.038.03-.012.06-.03.093-.043.03-.018.07-.03.1-.05.03-.017.06-.036.09-.05l.095-.06c.033-.02.063-.048.095-.07l.08-.06c.053-.045.104-.09.154-.14l9.665-9.65a2.214 2.214 0 0 0 0-3.134 2.218 2.218 0 0 0-3.135 0l-5.869 5.86.021-.01z"/></symbol>
<symbol id="in-progress" viewBox="0 0 40 40"><path d="M20 0C8.972 0 0 8.972 0 20s8.972 20 20 20 20-8.972 20-20S31.028 0 20 0zm-.016 5.008a15 15 0 0 1 15 15 15 15 0 0 1-15 15 15 15 0 0 1-15-15 15 15 0 0 1 15-15zM20 8.578v.004c-1.183 0-2.143.962-2.143 2.145v7.138h-7.14c-1.183 0-2.143.962-2.143 2.145 0 1.18.96 2.138 2.143 2.138H20c1.183 0 2.143-.958 2.143-2.142V10.72c0-1.182-.96-2.142-2.143-2.142z"/></symbol>
<symbol id="info" viewBox="0 0 40 40"><path d="M20 0c11.027 0 20 8.973 20 20s-8.973 20-20 20S0 31.027 0 20 8.973 0 20 0zm-.404 13.803c1.756 0 3.18-1.424 3.18-3.18 0-1.756-1.424-3.18-3.18-3.18-1.757 0-3.18 1.424-3.18 3.18 0 1.756 1.423 3.18 3.18 3.18zm4.787 18.754v-4.25h-1.607V16.82H15.64v4.25h1.584v7.236h-1.607v4.25h8.766z"/></symbol>
<symbol id="key" viewBox="0 0 40 40"><path d="M27.374 0C20.42 0 14.797 5.623 14.797 12.577c0 1.48.296 2.96.74 4.44L0 32.552v7.4h7.398v-4.44h4.44v-4.44h4.44l6.657-6.658c1.332.444 2.812.74 4.44.74 6.954 0 12.577-5.623 12.577-12.578C39.952 5.623 34.33 0 27.374 0zm3.7 13.317c-2.516 0-4.44-1.923-4.44-4.44 0-2.514 1.924-4.438 4.44-4.438 2.515 0 4.44 1.92 4.44 4.435s-1.925 4.44-4.44 4.44z"/></symbol>
<symbol id="keywords" viewBox="0 0 40 40"><path d="M31.2 29.333l-.8-.8c2.667-2.933 4.267-6.933 4.267-11.2C34.667 7.733 26.933 0 17.333 0S0 7.733 0 17.333c0 9.6 7.733 17.334 17.333 17.334 4.267 0 8.267-1.6 11.2-4.267l.8.8v2.133L36 40l4-4-6.667-6.667H31.2zm-13.867 1c-7.222 0-13-5.777-13-13 0-7.222 5.778-13 13-13 7.223 0 13 5.778 13 13 0 7.223-5.777 13-13 13z"/><path d="M21.328 19.395l1.664-8.075h3.27L23.027 24H20.19l-2.4-7.98L15.386 24H12.56L9.33 11.32h3.27l1.65 8.063 2.32-8.063h2.45"/></symbol>
<symbol id="list" viewBox="0 0 40 32"><path d="M5 0c1 0 1.667.64 1.667 1.6v3.2C6.667 5.76 6 6.4 5 6.4H1.667C.667 6.4 0 5.76 0 4.8V1.6C0 .64.667 0 1.667 0H5zm0 12.8c1 0 1.667.64 1.667 1.6v3.2c0 .96-.667 1.6-1.667 1.6H1.667c-1 0-1.667-.64-1.667-1.6v-3.2c0-.96.667-1.6 1.667-1.6H5zm0 12.8c1 0 1.667.64 1.667 1.6v3.2C6.667 31.36 6 32 5 32H1.667C.667 32 0 31.36 0 30.4v-3.2c0-.96.667-1.6 1.667-1.6H5zM38.333 0c1 0 1.667.64 1.667 1.6v3.2c0 .96-.667 1.6-1.667 1.6H15c-1 0-1.667-.64-1.667-1.6V1.6C13.333.64 14 0 15 0h23.333zm0 12.8c1 0 1.667.64 1.667 1.6v3.2c0 .96-.667 1.6-1.667 1.6H15c-1 0-1.667-.64-1.667-1.6v-3.2c0-.96.667-1.6 1.667-1.6h23.333zm0 12.8c1 0 1.667.64 1.667 1.6v3.2c0 .96-.667 1.6-1.667 1.6H15c-1 0-1.667-.64-1.667-1.6v-3.2c0-.96.667-1.6 1.667-1.6h23.333z"/></symbol>
<symbol id="loading" viewBox="0 0 32 40"><path d="M.158 21.367c-.25-2.114-.042-4.154.526-6.04 1.89-6.27 7.812-10.878 14.84-10.96V.27c0-.228.29-.35.484-.212l8.664 6.195c.142.106.142.318 0 .415l-8.656 6.195c-.2.138-.485.017-.485-.21v-4.09c-4.62.073-8.56 2.845-10.26 6.764-.64 1.48-.964 3.113-.872 4.83.125 2.357 1.036 4.527 2.473 6.283.77.935.585 2.3-.41 3.01-.943.673-2.264.486-2.99-.408C1.688 26.88.5 24.245.158 21.367zm25.015-7.87c1.445 1.748 2.356 3.927 2.473 6.285.092 1.724-.242 3.358-.877 4.83-1.7 3.918-5.64 6.698-10.26 6.763v-4.09c0-.227-.298-.35-.49-.21L7.36 33.27c-.142.105-.142.317 0 .414l8.656 6.196c.2.138.484.016.484-.212V35.57c7.027-.073 12.96-4.682 14.84-10.96.567-1.885.768-3.926.525-6.04-.334-2.877-1.52-5.512-3.3-7.674-.735-.895-2.047-1.082-2.99-.407-.987.703-1.17 2.07-.402 3.003z"/></symbol>
<symbol id="login" viewBox="0 0 36 40"><path d="M35.168 18.977c-.52-.53-1.148-.795-1.89-.795h-2.833v-5.455c0-3.485-1.222-6.477-3.667-8.977S21.408 0 18 0c-3.408 0-6.334 1.25-8.78 3.75-2.443 2.5-3.665 5.492-3.665 8.977v5.455H2.72c-.74 0-1.37.265-1.89.795-.517.53-.777 1.174-.777 1.932v16.36c0 .755.26 1.4.778 1.93.52.53 1.15.795 1.89.795h30.56c.74 0 1.37-.266 1.89-.796.52-.53.78-1.175.78-1.93V20.91c0-.758-.26-1.402-.78-1.933zm-10.057-.795H10.89v-5.455c0-2.007.695-3.722 2.084-5.142 1.39-1.42 3.065-2.13 5.028-2.13 1.963 0 3.64.71 5.028 2.13 1.39 1.42 2.083 3.135 2.083 5.142v5.455z"/></symbol>
<symbol id="logout" viewBox="0 0 40 40"><path d="M32.44 22.14H14.17c-1.223 0-2.214-.99-2.214-2.214 0-1.222.99-2.214 2.214-2.214h18.27l-5.86-5.862c-.864-.865-.864-2.267 0-3.13.865-.866 2.267-.866 3.13 0l9.643 9.64c.053.052.102.107.148.163l.06.076c.03.03.05.06.07.09l.06.09.06.09c.02.03.04.062.05.1l.05.092c.016.032.026.065.038.097l.04.107c.01.033.016.066.024.1.01.036.02.073.027.11.01.04.013.077.02.115l.013.097c.003.073.01.145.01.216 0 .08-.007.15-.01.22l-.02.1c-.005.037-.01.076-.02.115-.004.037-.015.073-.024.11-.01.033-.017.067-.027.1-.01.036-.025.07-.037.105-.01.03-.024.065-.038.1-.012.03-.03.06-.043.093-.018.03-.03.07-.05.1-.017.03-.036.06-.05.09l-.06.094c-.02.033-.048.063-.07.095l-.06.08c-.045.053-.09.104-.14.154l-9.65 9.65c-.43.43-1 .65-1.564.65-.57 0-1.135-.214-1.57-.65-.865-.86-.865-2.262 0-3.13l5.86-5.86zM2.36 0h18.452v4.428H4.575v30.997h16.237v4.428H2.362c-1.223 0-2.215-.992-2.215-2.214V2.21C.147.99 1.14 0 2.36 0z"/></symbol>
<symbol id="magic" viewBox="0 0 40 40"><g fill-rule="evenodd"><path d="M35.5 0L0 35.5 4.5 40 40 4.5 35.5 0zm-3.705 6.706L35.5 3 37 4.5l-3.706 3.705-1.5-1.5z" fill-rule="nonzero"/><path d="M5.055 7.916l-4.57-1.43 4.57-1.43 1.43-4.57 1.43 4.57 4.57 1.43-4.57 1.43-1.43 4.57m8.745-1.232L12 10.244l3.23-1.013L16.244 6l1.01 3.23 3.232 1.013-3.23 1.01-1.012 3.232m6.46-8.875l-3.047-.953 3.046-.954.954-3.046.953 3.046 3.047.954-3.047.953-.953 3.047m11.046 9.953l-3.046-.953 3.046-.954.954-3.046.953 3.046 3.047.954-3.047.953-.953 3.047"/></g></symbol>
<symbol id="manual" viewBox="0 0 34 42"><path d="M18.217.4a2.492 2.4 0 0 0-2.492 2.4V18c0 .442-.372.8-.83.8-.46 0-.83-.358-.83-.8V6h-.002a2.492 2.4 0 0 0-2.493-2.4A2.492 2.4 0 0 0 9.078 6v20l-3.365-4.434c-.997-1.48-2.943-1.976-4.37-1.128-1.42.867-1.77 2.76-.788 4.234 0 0 5.427 7.91 7.74 11.295C10.61 39.353 14.355 42 21.36 42 32.961 42 34 33.374 34 30.8V9.2a2.492 2.4 0 0 0-2.492-2.4 2.492 2.4 0 0 0-2.492 2.4v10.4c0 .442-.372.8-.83.8-.46 0-.832-.358-.832-.8V4.4A2.492 2.4 0 0 0 24.86 2a2.492 2.4 0 0 0-2.492 2.4V18c0 .442-.372.8-.83.8a.813.813 0 0 1-.828-.8V2.8h-.002A2.492 2.4 0 0 0 18.217.4z"/></symbol>
<symbol id="menu" viewBox="0 0 40 40"><path d="M 0,0 40,0 40,4 0,4 Z"/><path d="m 0,18 40,0 0,4 -40,0 z"/><path d="m 0,36 40,0 0,4 -40,0 z"/></symbol>
<symbol id="notification" viewBox="0 0 32 40"><path d="M16 40c-2.21 0-4-1.836-4-4.103h8C20 38.164 18.21 40 16 40zm12-12.308l4 4.103v2.05H0v-2.05l4-4.103V17.436c0-6.308 3.27-11.57 9-12.964V3.077C13 1.374 14.34 0 16 0s3 1.374 3 3.077v1.395c5.73 1.395 9 6.656 9 12.964v10.256z"/></symbol>
<symbol id="off" viewBox="0 0 40 40"><path d="M20 40C8.954 40 0 31.046 0 20S8.954 0 20 0s20 8.954 20 20-8.954 20-20 20zm0-6c7.732 0 14-6.268 14-14S27.732 6 20 6 6 12.268 6 20s6.268 14 14 14z" /><path d="M15.977 11.977l-4 4L16 20l-4.023 4.023 4 4L20 24l4.023 4.023 4-4L24 20l4.023-4.023-4-4L20 16l-4.023-4.023z" /></symbol>
<symbol id="on-off" viewBox="0 0 38 40"><path d="M19 40C8.524 40 0 31.625 0 21.334c0-5.323 2.323-10.407 6.377-13.95 1.12-.978 2.834-.88 3.83.22.998 1.1.897 2.787-.223 3.766C7.09 13.9 5.43 17.53 5.43 21.334c0 7.354 6.088 13.333 13.57 13.333 7.485 0 13.57-5.98 13.57-13.333 0-3.802-1.658-7.433-4.547-9.964-1.124-.98-1.225-2.66-.228-3.766.996-1.1 2.714-1.198 3.833-.22C35.678 10.928 38 16.012 38 21.334 38 31.624 29.476 40 19 40zm2.714-24V2.667C21.714 1.193 20.5 0 19 0c-1.498 0-2.714 1.193-2.714 2.667V16c0 1.474 1.216 2.667 2.715 2.667 1.5 0 2.716-1.193 2.716-2.667z"/></symbol>
<symbol id="open" viewBox="0 0 40 40"><path d="M12.546 35.425H4.428h20.998V25.188h4.427v12.45c0 1.223-.992 2.215-2.214 2.215H2.21c-.61 0-1.165-.248-1.566-.65-.4-.4-.648-.953-.648-1.564V13.21C0 11.99.99 11 2.213 11h11.45v4.428H4.428v19.997zM35.39 7.87L13.935 29.326c-.9.9-2.36.9-3.26 0-.9-.9-.9-2.36 0-3.26L32.127 4.61h-8.633c-1.273 0-2.306-1.03-2.306-2.305C21.19 1.032 22.22 0 23.494 0h14.2c.075 0 .15.004.227.012.036.003.068.01.1.014.04.006.085.01.126.02.038.006.075.017.112.026.036.01.072.017.107.028.037.01.072.025.108.037.036.013.07.025.106.04.032.013.065.03.097.045.036.016.072.032.106.05.033.017.062.037.093.055.034.02.068.04.1.062.035.02.067.043.1.07l.083.06c.056.047.112.097.165.15.058.06.108.114.155.17l.06.084c.023.032.05.065.07.1.023.03.04.065.06.1.02.03.04.06.057.092.02.033.034.07.05.103.016.034.033.066.047.1.014.034.025.07.038.103.014.037.028.073.04.11l.026.104c.01.038.02.076.028.115.008.04.013.08.018.12.005.034.012.068.015.103.005.072.01.145.01.217v14.21c0 .637-.26 1.213-.676 1.63-.417.417-.994.675-1.63.675-1.274 0-2.306-1.032-2.306-2.305V7.87z"/></symbol>
<symbol id="operator-ends-with" viewBox="0 0 40 40"><path d="M34 17V0h6v40h-6V23H0v-6h34z" fill-rule="evenodd"/></symbol>
<symbol id="operator-equal" viewBox="0 0 24 16"><path d="M0 0h24v6H0V0zm0 10h24v6H0v-6z" fill-rule="evenodd"/></symbol>
<symbol id="operator-in" viewBox="0 0 31 30"><path d="M14.578 4.737H27.6c1.325 0 2.4-1.06 2.4-2.37C30 1.06 28.926 0 27.6 0H14.578C6.538 0 0 5.745 0 12.807v2.807C0 23.144 6.95 30 14.578 30H27.6c1.325 0 2.4-1.06 2.4-2.368 0-1.31-1.074-2.37-2.4-2.37H14.578c-4.338 0-8.602-3.693-9.57-7.894H28c1.326 0 2.4-1.06 2.4-2.368 0-1.308-1.074-2.37-2.4-2.37H4.81c.12-4.878 5.122-7.893 9.768-7.893z"/></symbol>
<symbol id="operator-is-empty" viewBox="0 0 40 40"><path d="M8 0h24c4.418 0 8 3.582 8 8v24c0 4.418-3.582 8-8 8H8c-4.418 0-8-3.582-8-8V8c0-4.418 3.582-8 8-8zm0 4C5.79 4 4 5.79 4 8v24c0 2.21 1.79 4 4 4h24c2.21 0 4-1.79 4-4V8c0-2.21-1.79-4-4-4H8z" fill-rule="evenodd"/></symbol>
<symbol id="operator-is-regex" viewBox="0 0 32 8"><path d="M.07 5.06c-.19-.585.007-1.24.563-1.657C3.943.923 8.063-2.164 16.86 2.17c6.66 3.28 9.112 1.442 12.218-.885.75-.563 1.872-.477 2.505.193.397.42.506.972.346 1.463.19.59-.01 1.24-.57 1.66-2.105 1.58-4.54 3.4-8.3 3.4-2.15 0-4.728-.59-7.926-2.17-6.66-3.28-9.114-1.44-12.22.89-.75.563-1.874.477-2.506-.192-.39-.42-.5-.975-.34-1.465z" /></symbol>
<symbol id="operator-length-equal" viewBox="0 0 40 40"><path d="M0 0h4v40H0V0zm36 0h4v40h-4V0zM8 12h24v6H8v-6zm0 10h24v6H8v-6z" fill-rule="evenodd"/></symbol>
<symbol id="operator-length-less-than" viewBox="0 0 40 40"><path d="M0 0h4v40H0V0zm36 0h4v40h-4V0zm-6.325 34c-.44 0-.887-.125-1.282-.385L9.04 20.835C8.39 20.408 8 19.685 8 18.91s.39-1.5 1.04-1.927l19.353-12.78c1.07-.708 2.512.58 3.22 1.645.71 1.064.417 2.498-.652 3.204L16.527 18.91l14.437 9.856c1.07.706 1.362 2.14.653 3.205-.447.674-1.186 2.03-1.938 2.03z" fill-rule="evenodd"/></symbol>
<symbol id="operator-length-more-than" viewBox="0 0 40 40"><path d="M0 0h4v40H0V0zm36 0h4v40h-4V0zM10.325 34c-.752 0-1.49-1.358-1.938-2.03-.71-1.063-.417-2.498.652-3.204l14.434-9.857L9.04 9.05c-1.07-.706-1.362-2.14-.653-3.204.708-1.066 2.15-2.353 3.22-1.644l19.354 12.78c.65.427 1.04 1.15 1.04 1.925 0 .774-.39 1.497-1.04 1.926l-19.35 12.78c-.395.26-.84.384-1.282.384z" fill-rule="evenodd"/></symbol>
<symbol id="operator-less-than" viewBox="0 0 24 30"><path d="M21.675 30c.752 0 1.49-1.358 1.938-2.03.71-1.063.417-2.498-.652-3.204L8.527 14.91 22.96 5.05c1.07-.706 1.362-2.14.653-3.204-.708-1.066-2.15-2.353-3.22-1.644L1.04 12.984C.39 13.41 0 14.134 0 14.908s.39 1.497 1.04 1.926l19.353 12.78c.395.26.84.384 1.282.384z"/></symbol>
<symbol id="operator-less-than-equal" viewBox="0 0 24 40"><path d="M0 34h24v6H0v-6zm21.675-6c-.44 0-.887-.117-1.282-.36L1.04 15.713C.39 15.313 0 14.64 0 13.915c0-.723.39-1.398 1.04-1.798L20.392.19c1.07-.662 2.512.54 3.22 1.534.71.994.417 2.332-.652 2.99l-14.436 9.2 14.437 9.2c1.07.66 1.364 2 .655 2.992-.447.626-1.186 1.894-1.938 1.894z" fill-rule="evenodd"/></symbol>
<symbol id="operator-more-than" viewBox="0 0 24 30"><path d="M2.325 30c-.752 0-1.49-1.358-1.938-2.03-.71-1.063-.417-2.498.652-3.204l14.434-9.857L1.04 5.05C-.03 4.346-.323 2.912.386 1.848 1.096.782 2.536-.505 3.606.204l19.355 12.78c.65.427 1.04 1.15 1.04 1.925 0 .772-.39 1.495-1.04 1.924L3.61 29.614c-.395.26-.84.386-1.282.386z"/></symbol>
<symbol id="operator-more-than-equal" viewBox="0 0 24 40"><path d="M0 34h24v6H0v-6zm2.325-6c-.752 0-1.49-1.268-1.938-1.894-.71-.993-.417-2.332.652-2.99l14.434-9.2-14.437-9.2c-1.068-.66-1.36-2-.652-2.993C1.095.73 2.535-.472 3.605.19L22.96 12.117c.65.4 1.04 1.075 1.04 1.798 0 .724-.39 1.4-1.04 1.798L3.608 27.64c-.395.243-.84.36-1.282.36z" fill-rule="evenodd"/></symbol>
<symbol id="operator-not-empty" viewBox="0 0 40 40"><path d="M32.275 4.01C32.185 4.002 32.092 4 32 4H8C5.79 4 4 5.79 4 8v24c0 .092.003.184.01.275L32.274 4.01zm3.353 2.303L6.313 35.628C6.826 35.868 7.397 36 8 36h24c2.21 0 4-1.79 4-4V8c0-.603-.133-1.174-.372-1.687zM8 0h24c4.418 0 8 3.582 8 8v24c0 4.418-3.582 8-8 8H8c-4.418 0-8-3.582-8-8V8c0-4.418 3.582-8 8-8z"/></symbol>
<symbol id="operator-not-equal" viewBox="0 0 28 40"><path d="M16 12H2v6h10.112L9.52 22H2v6h3.63L.406 36.063c-.787 1.214-.392 2.803.882 3.55.443.262.935.387 1.42.387.91 0 1.797-.435 2.31-1.226L11.998 28h14v-6h-10.11l2.592-4H26v-6h-3.63l5.226-8.064c.786-1.213.39-2.803-.883-3.55-1.273-.75-2.944-.373-3.73.84L16.003 12z" fill-rule="evenodd"/></symbol>
<symbol id="operator-not-in" viewBox="0 0 32 40"><path d="M26.258 6H28.6C29.926 6 31 7.06 31 8.368c0 1.31-1.075 2.37-2.4 2.37h-5.412L18.07 18.63H29c1.326 0 2.4 1.062 2.4 2.37s-1.074 2.368-2.4 2.368H15l-4.182 6.455c1.456.9 3.102 1.44 4.76 1.44H28.6c1.326 0 2.4 1.06 2.4 2.37C31 34.94 29.925 36 28.6 36H15.578c-2.617 0-5.153-.807-7.357-2.17l-3.2 4.944C4.507 39.564 3.62 40 2.71 40c-.487 0-.98-.125-1.42-.386-1.276-.748-1.67-2.337-.884-3.55l3.772-5.822C2.21 27.782 1 24.757 1 21.614v-2.807C1 11.745 7.54 6 15.578 6h4.31l3.096-4.775c.785-1.212 2.456-1.59 3.73-.84 1.273.748 1.668 2.338.882 3.55L26.258 6zM7.003 25.882l1.63-2.514H6.007c.2.87.542 1.717.996 2.514zm4.7-7.25l5.116-7.895h-1.247c-4.646 0-9.647 3.015-9.767 7.894H11.7z"/></symbol>
<symbol id="operator-not-regex" viewBox="0 0 40 28"><path d="M10.067 14.692c-.18-.657.005-1.395.527-1.864 3.103-2.79 6.966-6.262 15.212-1.387 6.243 3.694 8.543 1.626 11.454-.992.705-.634 1.756-.537 2.35.216.37.474.474 1.094.323 1.647.18.657-.005 1.394-.527 1.863C37.43 15.948 35.146 18 31.622 18c-2.013 0-4.43-.67-7.43-2.44-6.24-3.69-8.54-1.622-11.452.994-.705.634-1.756.537-2.35-.216-.37-.474-.474-1.094-.323-1.646zM0 0h4v20H0V0zm0 24h4v4H0v-4z"/></symbol>
<symbol id="operator-starts-with" viewBox="0 0 40 40"><path d="M6 17V0H0v40h6V23h34v-6H6z" fill-rule="evenodd"/></symbol>
<symbol id="pairing" viewBox="0 0 40 40"><path d="M37.937 24.41l-5.097-5.1c-1.373-1.372-3.04-2.06-5-2.06-1.993 0-3.692.72-5.098 2.158l-2.156-2.157c1.438-1.4 2.156-3.11 2.156-5.12 0-1.96-.677-3.61-2.034-4.97L15.66 2.09C14.304.693 12.637 0 10.66 0 8.7 0 7.043.68 5.687 2.035L2.083 5.613C.693 6.97 0 8.627 0 10.587c0 1.96.686 3.628 2.06 5l5.096 5.097c1.372 1.373 3.04 2.06 5 2.06 1.993 0 3.692-.72 5.097-2.158l2.156 2.157c-1.44 1.405-2.16 3.112-2.16 5.122 0 1.96.68 3.618 2.03 4.975l5.05 5.072c1.35 1.39 3.02 2.083 5 2.083 1.96 0 3.62-.677 4.97-2.034l3.6-3.57c1.382-1.35 2.08-3.01 2.08-4.97s-.69-3.62-2.06-5zM17.253 13.92c-.05-.048-.2-.203-.453-.465-.253-.26-.43-.437-.527-.527-.098-.09-.253-.212-.466-.368-.212-.155-.42-.26-.624-.318-.205-.057-.43-.086-.675-.086-.653 0-1.21.23-1.666.686-.458.457-.686 1.013-.686 1.667 0 .24.028.46.086.67.057.2.163.41.318.62.155.21.278.36.368.46.09.1.265.27.527.522.26.252.416.403.465.453-.49.51-1.078.76-1.764.76-.67 0-1.226-.22-1.667-.66l-5.1-5.097c-.46-.457-.69-1.013-.69-1.667 0-.636.23-1.183.68-1.64l3.6-3.58c.47-.44 1.03-.66 1.663-.66.655 0 1.21.23 1.67.686l5.05 5.073c.455.456.684 1.012.684 1.665 0 .69-.27 1.287-.81 1.79zm17.352 17.13l-3.603 3.578c-.458.425-1.013.637-1.667.637-.67 0-1.225-.22-1.666-.66l-5.05-5.074c-.46-.45-.69-1.01-.69-1.66 0-.68.27-1.28.81-1.79l.45.47c.25.26.43.44.52.53.1.09.25.22.462.37.21.16.42.26.624.32.206.06.43.09.675.09.655 0 1.21-.23 1.668-.685.456-.456.685-1.012.685-1.665 0-.245-.03-.47-.088-.674-.057-.203-.163-.41-.32-.624-.154-.212-.276-.37-.366-.466-.09-.097-.267-.273-.53-.527l-.464-.45c.49-.52 1.08-.786 1.763-.786.652 0 1.21.23 1.664.686l5.1 5.096c.456.457.684 1.013.684 1.666 0 .636-.23 1.184-.69 1.64z"/></symbol>
<symbol id="people" viewBox="0 0 40 40"><path d="M8.57 25.714c0 2.857 2.86 2.857 2.86 2.857V40H2.856V25.714S0 25.714 0 22.857v-10C0 10 2.857 10 2.857 10h6.056c-.334.786-.342 1.43-.342 1.43v14.284zm0-17.143c-2.366 0-4.284-1.915-4.284-4.282S6.204 0 8.57 0c2.37 0 4.287 1.92 4.287 4.286 0 1.515-.79 2.84-1.978 3.6-.09.05-.188.097-.27.148-.61.332-1.298.537-2.04.537zM37.144 10C40 10 40 12.857 40 12.857v10c0 2.857-2.857 2.857-2.857 2.857V40H28.57V28.57s2.86 0 2.86-2.856V11.43s-.01-.644-.34-1.43h6.053zm-8.03-2.116c-1.182-.763-1.97-2.085-1.97-3.598C27.144 1.92 29.06 0 31.43 0c2.366 0 4.284 1.92 4.284 4.286 0 2.367-1.918 4.285-4.285 4.285-.746 0-1.43-.202-2.04-.534-.086-.053-.185-.1-.278-.15zM20 8.57c-2.367 0-4.286-1.917-4.286-4.284S17.634 0 20 0c2.367 0 4.286 1.92 4.286 4.286 0 2.367-1.92 4.285-4.286 4.285zm8.57 4.287v10c0 2.857-2.856 2.857-2.856 2.857V40H14.286V25.714s-2.857 0-2.857-2.857v-10C11.43 10 14.283 10 14.283 10h11.428c2.857 0 2.857 2.857 2.857 2.857z"/></symbol>
<symbol id="plus" viewBox="0 0 40 40"><path d="M20 0A20 20 0 0 0 0 20a20 20 0 0 0 20 20 20 20 0 0 0 20-20A20 20 0 0 0 20 0zm-2 10h4v8h8v4h-8v8h-4v-8h-8v-4h8v-8z"/></symbol>
<symbol id="product" viewBox="0 0 40 40"><path d="M.043 31.682L0 13.502c-.002-.894.915-1.498 1.74-1.147l16.604 7.075c.458.195.757.644.758 1.142l.043 18.18c.002.893-.915 1.498-1.74 1.146L.8 32.824c-.458-.196-.756-.644-.757-1.142zm38.663-19.517c.658 0 1.25.527 1.25 1.244L40 31.585c0 .497-.295.948-.753 1.145l-16.57 7.154c-.163.07-.33.103-.494.104-.658 0-1.25-.528-1.25-1.244l-.044-18.18c-.004-.497.292-.947.75-1.145l16.57-7.153c.163-.07.33-.104.494-.105zM19.874 0c.173 0 .346.035.507.106L37.85 7.78c.99.437.994 1.837.006 2.277l-17.433 7.758c-.16.072-.334.108-.506.11-.173 0-.346-.036-.507-.107L1.94 10.142c-.99-.435-.993-1.836-.005-2.276L19.368.108c.16-.072.334-.108.506-.108z"/></symbol>
<symbol id="refresh" viewBox="0 0 32 40"><path d="M.158 21.367c-.25-2.114-.042-4.154.526-6.04 1.89-6.27 7.812-10.878 14.84-10.96V.27c0-.228.29-.35.484-.212l8.664 6.195c.142.106.142.318 0 .415l-8.656 6.195c-.2.138-.485.017-.485-.21v-4.09c-4.62.073-8.56 2.845-10.26 6.764-.64 1.48-.964 3.113-.872 4.83.125 2.357 1.036 4.527 2.473 6.283.77.935.585 2.3-.41 3.01-.943.673-2.264.486-2.99-.408C1.688 26.88.5 24.245.158 21.367zm25.015-7.87c1.445 1.748 2.356 3.927 2.473 6.285.092 1.724-.242 3.358-.877 4.83-1.7 3.918-5.64 6.698-10.26 6.763v-4.09c0-.227-.298-.35-.49-.21L7.36 33.27c-.142.105-.142.317 0 .414l8.656 6.196c.2.138.484.016.484-.212V35.57c7.027-.073 12.96-4.682 14.84-10.96.567-1.885.768-3.926.525-6.04-.334-2.877-1.52-5.512-3.3-7.674-.735-.895-2.047-1.082-2.99-.407-.987.703-1.17 2.07-.402 3.003z"/></symbol>
<symbol id="reorder" viewBox="0 0 40 40">	<path d="M11.35 12c-.365 0-.682-.132-.95-.396-.266-.264-.4-.576-.4-.937 0-.36.134-.674.4-.938L19.85.392C20.12.13 20.435 0 20.8 0s.682.13.95.395L31.2 9.73c.266.263.4.576.4.937 0 .36-.134.673-.4.937-.268.264-.585.396-.95.396h-18.9zm18.9 16c.365 0 .682.132.95.396.266.264.4.576.4.937 0 .36-.134.674-.4.937l-9.45 9.334c-.268.264-.584.396-.95.396s-.682-.132-.95-.396L10.4 30.27c-.266-.263-.4-.576-.4-.937 0-.36.134-.673.4-.937.268-.264.584-.396.95-.396h18.9zM0 16h40v2H0v-2zm0 6h40v2H0v-2z"/></symbol>
<symbol id="rules" viewBox="0 0 24 40"><path d="M24 20.408c0 2.467-1.125 4.335-3.376 5.604 2.004 1.435 3.006 3.477 3.006 6.126 0 2.467-1.027 4.394-3.082 5.78C18.494 39.31 15.666 40 12.065 40c-3.89 0-6.874-.746-8.95-2.237C1.037 36.27 0 34.145 0 31.385h7.36c0 1.046.368 1.833 1.1 2.363.734.53 1.936.795 3.605.795 2.803 0 4.204-.795 4.204-2.384 0-.81-.42-1.47-1.26-1.97-.84-.5-2.55-1.1-5.15-1.8-2.6-.7-4.56-1.43-5.88-2.19-1.32-.75-2.31-1.65-2.98-2.69-.67-1.04-1-2.27-1-3.69 0-2.456 1.14-4.338 3.42-5.648C1.37 12.7.343 10.662.343 8.07c0-2.424 1.053-4.376 3.158-5.854C5.612.74 8.432 0 11.978 0c3.63 0 6.468.78 8.516 2.342 2.047 1.56 3.07 3.743 3.07 6.545h-7.34c0-1.046-.373-1.882-1.12-2.51-.748-.627-1.79-.94-3.126-.94-1.38 0-2.432.23-3.158.69-.726.46-1.09 1.094-1.09 1.902 0 .92.408 1.61 1.22 2.09.814.47 2.28.97 4.4 1.49 2.12.52 3.804 1.04 5.053 1.56 1.25.51 2.283 1.11 3.103 1.8.82.68 1.44 1.46 1.862 2.35.42.88.632 1.91.632 3.08zm-13.045-3.18c-.9-.222-1.75-.472-2.548-.75-.712.556-1.068 1.393-1.068 2.508 0 .948.32 1.67.97 2.164.64.495 2.2 1.112 4.67 1.85l2.57.71c.81-.612 1.22-1.448 1.22-2.508 0-.864-.4-1.57-1.2-2.122-.8-.55-2.34-1.167-4.62-1.85z"/></symbol>
<symbol id="sales" viewBox="0 0 40 40"><path d="M16.153 21.264c-.017.373.077.706.296 1.006.1.15.24.29.4.406l.12-2.878c-.51.43-.8.91-.83 1.466zm3.09 5.61l.11 4.77c.287.037.547.098.872.098.2 0 .34-.037.52-.053l.06-4.43c-.154-.03-.292-.07-.46-.11l-1.103-.28zm11.224-13.466c-1.725-1.677-5.935-4.206-6.333-5.513-.044-.122-.077-.236-.11-.345.374-.037.658-.268.658-.552 0-.31-.345-.56-.767-.56h-.04c.1-1.206 1.234-1.864 2.362-5.7-4.482-1.38-4.397-.31-7.81 1.396-2.53.532-2.35-2.955-5.546-1.348 1.63 3.492 2.96 4.433 3.26 5.664-.37.04-.65.268-.65.552 0 .28.29.51.66.552-.01.057-.016.105-.032.166-.343 1.372-4.71 3.89-6.57 5.688-4.065 3.954-12.245 25.72 2.6 26.242 6.984.244 7.87.244 7.87.244s.89 0 7.872-.244c14.844-.523 6.67-22.292 2.595-26.242zM26.62 28.83c-.09.837-.407 1.61-.95 2.335-.55.707-1.288 1.263-2.234 1.677-.215.098-.46.146-.69.22l-.11 1.546c-.024.422-.467.788-.994.8-.528.012-.95-.32-.942-.743l.016-1.242c-.162.004-.31.036-.475.036-.3-.01-.56-.03-.84-.05l.03 1.25c.01.42-.41.75-.94.73-.52-.01-.97-.38-.99-.81l-.11-1.55c-.62-.21-1.18-.47-1.633-.81-1.052-.8-1.81-2.136-2.24-3.69-.07-.69.39-1.215 1.06-1.16.68.055 1.3.696 1.36 1.41.223.935.637 1.5 1.266 2.015l-.3-4.715c-.423-.162-.79-.33-1.05-.466-.76-.42-1.31-.984-1.67-1.67-.352-.686-.51-1.425-.465-2.22.036-.72.227-1.39.57-1.998.34-.61.8-1.12 1.36-1.546.38-.286.9-.542 1.53-.773l.145-1.715c.04-.46.513-.857 1.07-.88.56-.025 1.002.33.994.78l-.035 1.39c.13-.003.26-.024.4-.024.37 0 .68.04 1.02.07l-.025-1.44c-.01-.456.442-.81 1.002-.79.563.025 1.04.415 1.075.87l.135 1.81c.055.02.116.034.17.05.96.394 1.67.9 2.142 1.526.473.627.834 1.64 1.054 2.7.032.737-.488 1.33-1.182 1.31-.718-.013-1.344-.67-1.372-1.446-.1-.57-.335-.96-.63-1.32l.09 4.4c.59.2 1.075.37 1.41.52.724.33 1.26.8 1.6 1.41.34.61.464 1.35.375 2.2zm-3.286-.8c-.048-.035-.142-.068-.22-.1l-.214 3.146c.033-.02.08-.028.114-.057.625-.48.962-1.03 1.02-1.66.052-.58-.18-1.02-.7-1.33zm-3.418-9.02c-.248 0-.414.04-.637.06l-.07 4.483c.3.09.64.183 1.03.285.21.06.38.105.58.166l-.03-4.904c-.3-.037-.55-.098-.88-.09z"/></symbol>
<symbol id="search" viewBox="0 0 40 40"><path d="M28.364 26.667l-.728-.728c2.425-2.67 3.88-6.307 3.88-10.185C31.516 7.03 24.486 0 15.756 0 7.03 0 0 7.03 0 15.758c0 8.727 7.03 15.757 15.758 15.757 3.878 0 7.515-1.454 10.18-3.88l.73.73v1.938L36.363 40 40 36.364l-9.697-9.697h-1.94zm-12.606 0c-6.06 0-10.91-4.85-10.91-10.91 0-6.06 4.85-10.91 10.91-10.91 6.06 0 10.91 4.85 10.91 10.91 0 6.06-4.85 10.91-10.91 10.91z" fill-rule="evenodd"/></symbol>
<symbol id="service-adwords" viewBox="0 0 40 40" preserveAspectRatio="xMidYMid"><path d="M20 19.992l5.6 16.805c0 .003 0 .006.002.01.245.682.64 1.286 1.132 1.794l.62-1.29-.37-36.213-.25-1.183-.015-.04-.52.442-6.41 19.195.21.483" fill="#097243"/><path d="M30.336 40.132l9.81.002-.01-.023L26.74-.09V38.6c.91.94 2.18 1.532 3.596 1.532" fill="#13a564"/><path d="M13.282-.13v.016l-.006-.015L-.136 40.116l-.01.02h9.81c1.415 0 2.687-.59 3.597-1.535.496-.51.89-1.114 1.135-1.794l.003-.01L26.723-.134H13.28v.005h.002" fill="#4d7bbe"/></symbol>
<symbol id="service-facebook" viewBox="0 0 40 40"><path d="M2.262.06c-1.215 0-2.2.986-2.2 2.2v35.48c0 1.214.985 2.2 2.2 2.2h19.1V24.498h-5.198v-6.02h5.197V14.04c0-5.15 3.148-7.956 7.743-7.956 2.2 0 4.093.165 4.644.238v5.382l-3.187.002c-2.5 0-2.984 1.186-2.984 2.93v3.842h5.96l-.776 6.018h-5.184V39.94h10.162c1.215 0 2.2-.986 2.2-2.2V2.26c0-1.216-.985-2.202-2.2-2.202H2.262z" fill="#3c5a99"/></symbol>
<symbol id="service-fakturoid" viewBox="0 0 40 40"><g fill-rule="evenodd"><path d="M23.364 26.206c0 1.464 1.158 2.336 3.168 2.336 1.977 0 2.93-.977 2.93-2.895v-1.812H27.83c-3.477 0-4.464.836-4.464 2.37"/><path d="M19.992.098C8.968.098.03 7.37.03 16.34v7.272c0 8.97 8.938 16.242 19.962 16.242 11.025 0 19.96-7.272 19.96-16.242V16.34c0-8.97-8.935-16.242-19.96-16.242zm-6.48 24.062h-1.976v7.87h-1.84c-1.466 0-2.76-1.152-2.76-2.79V16.81c0-3.837 1.738-8.64 6.96-9.83 5.286-1.205 6.765 1.445 6.765 1.445s-3.305-.046-5.896 2.027c-1.476 1.18-3.175 3.783-3.226 6.742v3.655c3.263.64 5.875-.474 6.646-.825l.132-.017s-.234 4.15-4.802 4.15zm20.415 1.452c0 3.976-2.862 6.73-6.95 6.73h-.922c-4.362 0-7.36-2.51-7.36-5.962 0-3.347 2.385-5.893 9.133-5.893h1.6v-.245c0-2.65-1.226-4.533-3.953-4.533-3.305 0-5.144 1.29-5.826 2.16h-.17v-1.5c0-2.09 1.84-4.6 6.675-4.6 4.09 0 7.77 3.032 7.77 9.52v4.32z"/></g></symbol>
<symbol id="service-google" viewBox="0 0 40 40"><path d="M2.446 11.124C1.154 13.776.41 16.797.41 19.967s.727 6.158 2.02 8.81l6.625-5.118c-.378-1.164-.587-2.4-.587-3.694 0-1.293.22-2.545.598-3.707z" fill="#fbbc05"/><path d="M20.108.077c-7.785 0-14.475 4.5-17.68 11.08l6.63 5.118c1.53-4.69 5.883-8.06 11.05-8.06 2.776 0 5.283.994 7.253 2.62l5.733-5.785C29.6 1.976 25.123.077 20.108.077z" fill="#ea4335"/><path d="M20.108 16.35v7.685h10.567c-.985 4.882-5.105 7.685-10.567 7.685-5.173 0-9.533-3.38-11.056-8.077l-6.627 5.13c3.204 6.58 9.896 11.083 17.683 11.083 9.85 0 18.804-7.232 18.804-19.89 0-1.175-.18-2.44-.448-3.615H20.108z" fill="#34a853"/><path d="M20.108 16.35v7.685h10.567c-.53 2.62-1.967 4.635-4.024 5.945l6.294 4.92c3.616-3.394 5.97-8.45 5.97-14.933 0-1.176-.18-2.44-.45-3.616H20.11z" fill="#4285f4"/></symbol>
<symbol id="service-google_ecommerce_tracking" viewBox="0 0 40 40"><path class="st3" d="M36.74.055h-7.22c-1.765 0-3.215 1.434-3.215 3.182v36.708H36.74c1.746 0 3.196-1.45 3.196-3.198V3.237c0-1.748-1.45-3.182-3.197-3.182z" fill="#f57c00"/><path class="st4" d="M12.673 15.797v10.516H3.228c-1.747 0-3.164 1.4-3.164 3.132v7.35c0 1.732 1.417 3.133 3.164 3.133h23.077V12.665H15.838c-1.73-.033-3.132 1.418-3.132 3.132z" fill="#ffc107"/></symbol>
<symbol id="service-heureka" viewBox="0 0 40 40"><path d="M18.327.266A16.622 16.715 0 0 0 1.705 16.98a16.622 16.715 0 0 0 16.622 16.716 16.622 16.715 0 0 0 8.043-2.09l6.843 7.28a2.89 2.905 0 1 0 4.198-3.99l-6.55-6.97a16.622 16.715 0 0 0 4.09-10.945 16.622 16.715 0 0 0-5.09-12.03 2.476 2.49 0 0 0-.89-.79A16.622 16.715 0 0 0 18.328.27zm-.086 4.412a12.227 12.296 0 0 1 6.547 1.926L18.15 17.527l-2.508-3.475a2.476 2.49 0 1 0-4.008 2.925l4.69 6.496a2.476 2.49 0 0 0 4.117-.164l7.98-13.14a12.227 12.296 0 0 1 2.05 6.8 12.227 12.296 0 0 1-12.23 12.3 12.227 12.296 0 0 1-12.225-12.3A12.227 12.296 0 0 1 18.24 4.678z" fill="#F27B30" fill-rule="evenodd"/></symbol>
<symbol id="service-mergado" viewBox="0 0 40 40"><path d="M0 0 L20 20 L0 40 Z" fill="#7FB92F"/><path d="M20 20 L40 40 L0 40 Z" fill="#427B27"/><path d="M20 20 L40 0 L40 40 Z" fill="#44A8B7"/></symbol>
<symbol id="service-seznam" viewBox="0 0 40 32"><path d="M33.183.407c.627-1.28 1.246.65 1.826 3.06.57 2.394 2.03 4.887-1.78 5.233-1.44-.027-2.764-.174-5.634.014-2.556.17-3.107.313-4.854.963-.85.336-.88 1.365-.106 1.907.544.38 3.264 1.498 5.72 2.576 3.04 1.334 7.493 2.988 9.365 4.546 2.834 2.356 2.607 5.9 1.545 7.98-1.18 2.304-4.865 3.664-9.865 4.475-6.644 1.08-19.49.97-24 .507-4.62-.478-5.51-.796-5.395-1.37.114-.577 3.17-.414 5.94-.598 3.547-.235 18.57-1.67 21.975-4.357 2.078-1.64.905-3.044.563-3.33-.87-1.14-4.213-2.762-7.12-4.41-4.24-2.406-7.423-4.452-8.24-6.405-.634-1.51-.547-3.417 1.026-5.136 1.84-2.013 3.994-3.096 6.87-3.875 3.14-.85 4.93-.876 7.46-.975 2.07-.08 4.302 0 4.696-.8" fill="#DB432B"/></symbol>
<symbol id="service-sklik" viewBox="0 0 40 32"><path d="M33.183.407c.627-1.28 1.246.65 1.826 3.06.57 2.394 2.03 4.887-1.78 5.233-1.44-.027-2.764-.174-5.634.014-2.556.17-3.107.313-4.854.963-.85.336-.88 1.365-.106 1.907.544.38 3.264 1.498 5.72 2.576 3.04 1.334 7.493 2.988 9.365 4.546 2.834 2.356 2.607 5.9 1.545 7.98-1.18 2.304-4.865 3.664-9.865 4.475-6.644 1.08-19.49.97-24 .507-4.62-.478-5.51-.796-5.395-1.37.114-.577 3.17-.414 5.94-.598 3.547-.235 18.57-1.67 21.975-4.357 2.078-1.64.905-3.044.563-3.33-.87-1.14-4.213-2.762-7.12-4.41-4.24-2.406-7.423-4.452-8.24-6.405-.634-1.51-.547-3.417 1.026-5.136 1.84-2.013 3.994-3.096 6.87-3.875 3.14-.85 4.93-.876 7.46-.975 2.07-.08 4.302 0 4.696-.8" fill="#DB432B"/></symbol>
<symbol id="service-zbozi" viewBox="0 0 40 40"><path fill="#dd1a21" d="M37.738 15.307c-5.37 2.623-19.364 6.841-21.239 7.474-1.225.412-5.267 1.832-5.483 3.333-.3 2.084 4.46 2.611 7.215 2.936 1.858.218 6.393.708 10.512.492 4.008-.212 9.617-1.053 9.738-.177.14 1.02-6.843 3.48-9.668 4.132-2.408.555-9.864 1.692-14.83 1.575-4.131-.096-10.827-.627-13.236-4.567-.84-1.375-.84-4.124-.049-5.319.877-1.325 1.833-2.645 3.957-3.558 4.048-1.739 22.439-8.43 22.995-8.546 1.23-.26 2.85-1.036-.389-1.295-2.562-.205-5.132-.338-7.702-.337-1.23 0-2.458.044-3.686.105-.988.05-2.124.15-2.892-.608-.682-.673-1.23-1.985-1.385-2.922-.146-.879.177-1.618.893-2.139 1.528-1.112 3.91-.98 5.696-.94.95.023 6.391.443 8.167.586 4.676.379 11.279 1.227 13.293 5.913 1.106 2.573-1.907 3.862-1.907 3.862"/></symbol>
<symbol id="settings" viewBox="0 0 40 40"><path d="M34.278 22c0-.6.2-1.2.2-2s0-1.4-.2-2l4.2-3.4c.4-.4.4-.8.2-1.2l-4-7c-.2-.2-.6-.4-1.2-.2l-5 2c-1-.8-2.2-1.4-3.4-2l-.8-5.2c.2-.6-.4-1-.8-1h-8c-.4 0-1 .4-1 .8l-.8 5.4c-1.2.4-2.2 1.2-3.4 2l-4.8-2c-.6-.2-1 0-1.4.4l-4 7c-.2.2 0 .8.4 1.2l4.2 3.2c0 .6-.2 1.2-.2 2s0 1.4.2 2l-4.2 3.4c-.4.4-.4.8-.2 1.2l4 7c.2.2.6.4 1.2.2l5-2c1 .8 2.2 1.4 3.4 2l.8 5.2c0 .4.4.8 1 .8h8c.4 0 1-.4 1-.8l.8-5.2c1.2-.6 2.4-1.2 3.4-2l5 2c.4.2 1 0 1.2-.4l4-7c.2-.4.2-1-.2-1.2l-4.6-3.2zm-14.8 5c-3.8 0-7-3.2-7-7s3.2-7 7-7 7 3.2 7 7-3.2 7-7 7z" fill-rule="evenodd"/></symbol>
<symbol id="show" viewBox="0 0 40 31"><path d="M27.58 28.602c-.08.076-.176.137-.282.176-2.345.878-4.8 1.322-7.298 1.322h-.16c-2.5 0-4.954-.444-7.3-1.322-.105-.04-.2-.1-.28-.176C6.577 26.312 2.03 21.547.04 15.355c-.032-.1-.045-.202-.04-.305-.005-.103.008-.206.04-.305C2.03 8.553 6.577 3.787 12.26 1.498c.08-.076.175-.137.28-.176C14.887.444 17.34 0 19.84 0H20c2.498 0 4.953.444 7.298 1.322.106.04.202.1.282.176 5.683 2.29 10.23 7.055 12.22 13.247.03.1.044.202.038.305.006.103-.007.206-.038.305-1.99 6.192-6.537 10.958-12.22 13.247zm-7.66-1.836c4.53-.03 8.455-2.656 10.36-6.46.008-.1.034-.196.078-.287.754-1.58 1.14-3.25 1.148-4.97-.007-1.72-.394-3.395-1.148-4.97-.044-.09-.07-.19-.078-.288-1.905-3.805-5.83-6.43-10.36-6.46-4.53.03-8.456 2.655-10.36 6.46-.01.098-.035.195-.08.286-.753 1.577-1.14 3.25-1.147 4.97.008 1.72.394 3.39 1.148 4.97.048.09.07.186.08.284 1.907 3.805 5.83 6.43 10.36 6.46zM19.84 22c-3.866 0-7-3.134-7-7s3.134-7 7-7 7 3.134 7 7-3.134 7-7 7z"/></symbol>
<symbol id="superadmin" viewBox="0 0 40 28"><path d="M38.354 8.87c.007.114 0 .23-.03.345l-2.462 10.21c-.124.514-.57.876-1.08.88l-14.776.076H5.224c-.514 0-.962-.36-1.086-.88L1.675 9.256c-.028-.12-.036-.238-.03-.354C.695 8.587 0 7.663 0 6.575 0 5.23 1.054 4.138 2.35 4.138c1.297 0 2.35 1.093 2.35 2.437 0 .756-.333 1.433-.857 1.88l3.084 3.22c.78.814 1.86 1.28 2.966 1.28 1.308 0 2.556-.643 3.34-1.722l5.068-6.96c-.422-.44-.686-1.05-.686-1.72 0-1.344 1.054-2.437 2.35-2.437 1.297 0 2.35 1.093 2.35 2.436 0 .652-.248 1.243-.652 1.68l.006.007 5.03 6.975c.785 1.09 2.037 1.74 3.35 1.74 1.115 0 2.165-.452 2.954-1.27l3.1-3.216c-.535-.447-.878-1.13-.878-1.896 0-1.344 1.054-2.437 2.35-2.437 1.297 0 2.35 1.093 2.35 2.437 0 1.06-.656 1.96-1.57 2.295zm-2.732 15.147c0-.64-.5-1.16-1.12-1.16H5.548c-.618 0-1.12.52-1.12 1.16V26.8c0 .642.502 1.16 1.12 1.16h28.956c.618 0 1.12-.518 1.12-1.16v-2.783z"/></symbol>
<symbol id="tag" viewBox="0 0 40 40"><path d="M39.023 21.254L20.145 2.404c-.67-.67-1.566-1.238-2.693-1.704-1.126-.467-2.156-.7-3.09-.7H3.38c-.916 0-1.708.335-2.377 1.003C.333 1.673 0 2.463 0 3.38v10.983c0 .933.233 1.962.7 3.09.466 1.126 1.034 2.014 1.703 2.666l18.877 18.9c.652.65 1.443.976 2.377.976.914 0 1.716-.327 2.402-.978l12.96-12.99c.65-.653.977-1.444.977-2.377 0-.914-.327-1.715-.978-2.402zM10.838 10.838c-.66.66-1.456.99-2.39.99-.932 0-1.73-.33-2.39-.99-.66-.66-.99-1.456-.99-2.39 0-.932.33-1.73.99-2.388.66-.66 1.458-.99 2.39-.99.934 0 1.73.33 2.39.99.66.66.99 1.456.99 2.39 0 .932-.33 1.728-.99 2.388z"/></symbol>
<symbol id="tag-2" viewBox="0 0 40 28"><path d="M30.737 1.6c-.632-1-1.895-1.6-3.37-1.6H4.212C1.896 0 0 1.8 0 4v20c0 2.2 1.895 4 4.21 4h23.16c1.474 0 2.737-.6 3.37-1.6L40 14 30.737 1.6z" fill-rule="evenodd"/></symbol>
<symbol id="tip" viewBox="0 0 30 40"><path d="M15 0c8.257 0 14.975 6.508 14.975 14.507 0 3.83-1.527 7.443-4.3 10.173l-.232.23c-.86.877-1.55 1.88-2.055 2.968H6.612c-.507-1.093-1.202-2.1-2.067-2.98l-.22-.218c-2.773-2.73-4.3-6.343-4.3-10.173C.025 6.507 6.743 0 15 0zM6.073 30.254h17.854v2.6c0 1.093-.867 1.993-1.97 2.092v1.396c0 2.017-1.693 3.658-3.775 3.658h-6.364c-2.082 0-3.776-1.64-3.776-3.658v-1.396c-1.102-.1-1.97-1-1.97-2.093v-2.6z"/></symbol>
<symbol id="trend-negative" viewBox="0 0 40 40"><path d="M24.407 28.644l-18.43-18.43C4.745 8.982 4.69 7.036 5.857 5.87c1.168-1.167 3.113-1.114 4.347.12L28.63 24.417l-.32-11.506c-.045-1.69 1.293-3.03 2.99-2.98 1.698.047 3.11 1.46 3.158 3.158l.524 18.926c.003.1 0 .203-.007.304-.002.044-.01.086-.016.128-.01.056-.01.108-.02.168l-.04.148c-.016.044-.02.093-.038.135-.015.042-.036.09-.043.14-.014.043-.028.086-.05.135-.014.042-.04.084-.056.126-.014.04-.035.09-.064.134l-.07.114-.075.135c-.028.04-.06.08-.09.124-.03.035-.053.072-.08.107-.06.076-.127.148-.196.217-.076.076-.148.14-.226.2-.032.028-.07.05-.104.08-.043.03-.085.063-.13.09-.042.03-.087.056-.134.08-.04.025-.076.05-.12.07-.045.027-.09.047-.133.066l-.135.06c-.047.02-.09.035-.137.046l-.15.05-.135.03c-.05.01-.103.026-.153.032-.05.01-.105.01-.16.02-.046.004-.087.01-.138.02-.093.005-.19.007-.29.007 0 0-6.313-.178-18.935-.525-.85-.03-1.626-.39-2.198-.962-.57-.57-.933-1.35-.956-2.197-.045-1.7 1.29-3.04 2.99-2.99l11.505.32z"/></symbol>
<symbol id="trend-neutral" viewBox="0 0 32 8"><path d="M.07 5.06c-.19-.585.007-1.24.563-1.657C3.943.923 8.063-2.164 16.86 2.17c6.66 3.28 9.112 1.442 12.218-.885.75-.563 1.872-.477 2.505.193.397.42.506.972.346 1.463.19.59-.01 1.24-.57 1.66-2.105 1.58-4.54 3.4-8.3 3.4-2.15 0-4.728-.59-7.926-2.17-6.66-3.28-9.114-1.44-12.22.89-.75.563-1.874.477-2.506-.192-.39-.42-.5-.975-.34-1.465z" /></symbol>
<symbol id="trend-positive" viewBox="0 0 40 40"><path d="M28.644 15.593l-18.43 18.43c-1.232 1.232-3.178 1.286-4.345.12-1.17-1.168-1.117-3.113.12-4.347L24.414 11.37l-11.506.32c-1.697.045-3.035-1.293-2.988-2.99.047-1.698 1.46-3.11 3.158-3.158l18.927-.524c.102-.003.203 0 .304.007.046.002.088.01.13.016.054.006.106.01.166.02l.148.037c.043.014.092.02.134.036.043.015.092.036.142.043.04.014.084.028.133.05.043.014.085.042.127.056.04.014.09.035.133.064l.114.07.135.077c.042.028.082.06.125.09.035.03.072.053.107.08.075.06.147.127.216.196.075.073.138.145.2.223.027.032.05.07.08.104.03.044.062.086.09.13.03.043.055.088.08.135.024.04.048.076.07.12.026.045.046.09.065.133l.06.135c.02.046.036.09.047.136l.05.15.03.137c.01.05.027.1.033.153.01.05.012.106.02.162.004.046.013.087.02.137.005.095.007.19.007.29 0 0-.177 6.315-.524 18.937-.028.85-.39 1.625-.962 2.197-.57.57-1.35.934-2.197.957-1.7.045-3.04-1.29-2.99-2.99l.32-11.505z" /></symbol>
<symbol id="turn-off" viewBox="0 0 40 40"><path d="M20 0c11.028 0 20 8.972 20 20s-8.972 20-20 20S0 31.028 0 20 8.972 0 20 0zm-5 11c-2.21 0-4 1.79-4 4v10c0 2.21 1.79 4 4 4h10c2.21 0 4-1.79 4-4V15c0-2.21-1.79-4-4-4H15z"/></symbol>
<symbol id="turn-on" viewBox="0 0 40 40"><path d="M20 40C8.954 40 0 31.046 0 20S8.954 0 20 0s20 8.954 20 20-8.954 20-20 20zm9.73-21.56L14.18 9.218c-.46-.257-1.032-.214-1.463-.214-1.725 0-1.717 1.253-1.717 1.57v18.853c0 .27-.008 1.57 1.717 1.57.43 0 1.002.044 1.462-.213l15.55-9.224c1.275-.716 1.054-1.56 1.054-1.56s.22-.844-1.055-1.56z"/></symbol>
<symbol id="unknown" viewBox="0 0 26 40"><path d="M12.202 30.686c2.394 0 4.37 1.97 4.37 4.37 0 2.402-1.973 4.37-4.37 4.37-2.398 0-4.37-1.966-4.37-4.37 0-2.4 1.972-4.37 4.37-4.37zM12.466 0C19.286 0 26 3.14 26 10.653c0 6.928-7.94 9.592-9.644 12.096-1.28 1.86-.852 4.475-4.37 4.475-2.29 0-3.41-1.863-3.41-3.568 0-6.346 9.323-7.78 9.323-13.006 0-2.874-1.917-4.58-5.115-4.58-6.82 0-4.157 7.03-9.322 7.03C1.6 13.106 0 11.988 0 9.858 0 4.63 5.965 0 12.466 0z" fill-rule="evenodd"/></symbol>
<symbol id="user" viewBox="0 0 40 40"><path d="M20.008 20.99c-4.93 0-8.928-4.68-8.928-10.45 0-8.004 3.997-10.45 8.928-10.45 4.93 0 8.93 2.446 8.93 10.45 0 5.77-4 10.45-8.93 10.45zm19.716 15.77c.31.7.247 1.5-.17 2.142-.417.642-1.123 1.025-1.89 1.025H2.35c-.765 0-1.47-.383-1.888-1.025-.417-.64-.48-1.442-.17-2.14l4.505-10.148c.206-.465.567-.85 1.018-1.084l6.99-3.64c.155-.08.34-.064.48.04 1.977 1.496 4.302 2.287 6.723 2.287 2.42 0 4.746-.79 6.723-2.286.14-.102.328-.12.48-.04l6.99 3.64c.45.236.815.62 1.02 1.086l4.506 10.147z"/></symbol>
<symbol id="variables" viewBox="0 0 40 40"><path d="M8 0h24c4.418 0 8 3.582 8 8v24c0 4.418-3.582 8-8 8H8c-4.418 0-8-3.582-8-8V8c0-4.418 3.582-8 8-8zm24 12.896c0-.853-.27-1.55-.817-2.09-.546-.538-1.226-.806-2.04-.806-.996 0-1.888.337-2.675 1.02-.79.68-1.682 1.804-2.68 3.37-.206.337-.457.724-.746 1.166-.29.44-.573.867-.844 1.282l-.334-1.437c-.13-.55-.275-1.09-.436-1.61-.217-.75-.5-1.34-.844-1.77-.342-.43-.748-.79-1.213-1.072-.5-.3-.98-.492-1.43-.58-.45-.09-.99-.14-1.63-.14-.7 0-1.57.13-2.61.39-1.04.26-2.14.654-3.3 1.176l-.43 1.756c.324-.116.724-.24 1.204-.38.48-.13.913-.2 1.303-.2.88 0 1.54.187 1.98.57.44.375.78.91 1.01 1.603.288.866.565 1.74.84 2.62.276.88.624 2.19 1.057 3.92-.48.675-.924 1.24-1.33 1.69-.41.455-.715.756-.91.914-.505-.183-1.04-.347-1.614-.496-.574-.15-1.17-.222-1.79-.222-1.04 0-1.918.336-2.64 1C8.357 25.23 8 26.138 8 27.29c0 .853.277 1.545.835 2.076.558.53 1.23.796 2.02.796 1.046 0 1.946-.33 2.698-1 .75-.667 1.64-1.782 2.663-3.348.322-.492.566-.874.736-1.148.167-.27.44-.683.814-1.244.132.466.263 1.005.394 1.614.128.608.27 1.154.43 1.63.232.764.515 1.36.843 1.79.33.424.737.78 1.214 1.065.436.28.922.46 1.452.57.53.1 1.06.16 1.61.16.75 0 1.6-.12 2.56-.37.95-.244 2.07-.64 3.35-1.19l.43-1.756c-.326.13-.74.26-1.248.39-.504.13-.924.193-1.26.193-.923 0-1.594-.19-2.023-.576-.425-.383-.75-.917-.97-1.597-.257-.86-.528-1.706-.81-2.538-.288-.834-.664-2.24-1.126-4.224.507-.686.957-1.27 1.36-1.75.4-.48.704-.79.91-.93.44.154.963.31 1.562.464.6.155 1.212.23 1.832.23 1.032 0 1.91-.332 2.63-1 .72-.662 1.074-1.56 1.074-2.686z" fill-rule="evenodd"/></symbol>
</svg>
