<?xml version="1.0" encoding="UTF-8" standalone="no"?><!DOCTYPE svg PUBLIC "-//W3C//DTD SVG 1.1//EN" "http://www.w3.org/Graphics/SVG/1.1/DTD/svg11.dtd"><svg width="200px" height="28.873px" viewBox="0 0 200 28.873" version="1.1" xmlns="http://www.w3.org/2000/svg" xmlns:xlink="http://www.w3.org/1999/xlink" xml:space="preserve" xmlns:serif="http://www.serif.com/" style="fill-rule:evenodd;clip-rule:evenodd;stroke-linejoin:round;stroke-miterlimit:2;"><g><path d="M6.925,13.395l-6.925,3.901l0,7.803l6.925,3.901l6.927,-3.901l0,-7.803l-6.927,-3.901Zm0,3.26l4.033,2.271l0,4.544l-4.033,2.27l-4.033,-2.27l0,-4.544l4.033,-2.271Z" style="fill:#007b22;fill-rule:nonzero;"/><path d="M22.782,13.395l-6.927,3.901l0,7.803l6.927,3.901l6.925,-3.901l0,-7.803l-6.925,-3.901Zm0,3.26l4.033,2.271l0,4.544l-4.033,2.27l-4.035,-2.27l0,-4.544l4.035,-2.271Z" style="fill:#00a9b8;fill-rule:nonzero;"/><path d="M14.852,0l-6.924,3.901l0,7.801l6.924,3.903l6.927,-3.903l0,-7.801l-6.927,-3.901Zm0,3.257l4.035,2.273l0,4.544l-4.035,2.271l-4.033,-2.271l0,-4.544l4.033,-2.273Z" style="fill:#7fba2c;fill-rule:nonzero;"/><path d="M42.366,21.784l0,-14.568l0.998,0l6.468,7.184l6.48,-7.184l0.998,0l0,14.568l-2.99,0l-0.006,-8.452l-4.482,4.86l-4.476,-4.86l0,8.452l-2.99,0Z" style="fill:#343434;fill-rule:nonzero;"/><path d="M59.809,21.784l0,-14.555l10.969,-0.013l0,2.718l-7.985,0l0,3.11l5.987,0l0,2.712l-5.987,0l0,3.31l7.965,0l0,2.718l-10.949,0Z" style="fill:#343434;fill-rule:nonzero;"/><path d="M76.335,13.044l4.181,0c1.199,-0.02 1.816,-0.555 1.851,-1.605c-0.035,-0.957 -0.643,-1.455 -1.825,-1.493l-4.207,0l0,3.098Zm6,2.387l3.727,6.353l-3.426,0l-3.573,-6.022l-2.728,0l0,6.022l-2.99,0l0,-14.568l6.512,0c3.483,0 5.225,1.4 5.225,4.198c0,2.104 -0.916,3.442 -2.747,4.017Z" style="fill:#343434;fill-rule:nonzero;"/><path d="M93.816,21.784c-2.114,-0.008 -3.886,-0.706 -5.315,-2.093c-1.431,-1.39 -2.145,-3.131 -2.145,-5.222c0.008,-2.044 0.725,-3.764 2.151,-5.16c1.425,-1.395 3.195,-2.093 5.309,-2.093c2.128,0 3.957,0.648 5.481,1.943l-1.992,2.124c-1.012,-0.774 -2.175,-1.162 -3.489,-1.162c-1.342,0.005 -2.421,0.412 -3.241,1.224c-0.819,0.809 -1.229,1.843 -1.229,3.105c0.003,1.354 0.418,2.43 1.243,3.229c0.822,0.797 1.904,1.194 3.246,1.194c1.075,0 1.901,-0.208 2.478,-0.625l0,-2.492l-1.992,0.006l0,-2.718l4.976,0l0,6.797c-1.521,1.296 -3.348,1.943 -5.481,1.943Z" style="fill:#343434;fill-rule:nonzero;"/><path d="M101.069,21.784l5.974,-14.568l2.99,0l5.961,14.555l-3.176,0.013l-0.896,-2.237l-6.768,0l-0.897,2.237l-3.188,0Zm7.549,-10.682l-2.273,5.534l4.481,0l-2.208,-5.534Z" style="fill:#343434;fill-rule:nonzero;"/><path d="M120.774,18.879l0,-8.751l2.766,0c2.646,0 3.973,1.458 3.983,4.372c-0.01,2.916 -1.337,4.376 -3.983,4.379l-2.766,0Zm2.766,2.905c4.644,0 6.966,-2.427 6.966,-7.284c0,-4.863 -2.322,-7.296 -6.966,-7.296l-5.756,0l0,14.58l5.756,0Z" style="fill:#343434;fill-rule:nonzero;"/><path d="M139.983,21.784c-2.123,0 -3.898,-0.697 -5.327,-2.093c-1.427,-1.395 -2.139,-3.125 -2.139,-5.191c0,-2.074 0.712,-3.806 2.139,-5.197c1.429,-1.39 3.204,-2.087 5.327,-2.087c2.126,0 3.901,0.697 5.327,2.087c1.425,1.391 2.138,3.123 2.138,5.197c0,2.071 -0.713,3.803 -2.138,5.197c-1.426,1.392 -3.201,2.087 -5.327,2.087Zm0.013,-2.718c1.319,0 2.391,-0.437 3.22,-1.311c0.833,-0.875 1.249,-1.959 1.249,-3.255c0,-1.295 -0.416,-2.38 -1.249,-3.255c-0.829,-0.874 -1.908,-1.311 -3.24,-1.311c-1.323,0 -2.401,0.437 -3.233,1.311c-0.829,0.875 -1.243,1.96 -1.243,3.255c0,1.296 0.414,2.38 1.243,3.255c0.832,0.874 1.916,1.311 3.253,1.311Z" style="fill:#343434;fill-rule:nonzero;"/><path d="M155.769,21.784l0,-14.568l6.512,0c3.484,0 5.225,1.4 5.225,4.198c0,2.898 -1.738,4.348 -5.212,4.348l-3.534,0l0,6.022l-2.991,0Zm2.991,-8.74l4.181,0c1.199,-0.02 1.815,-0.555 1.85,-1.605c-0.035,-0.957 -0.643,-1.455 -1.825,-1.493l-4.206,0l0,3.098Z" style="fill:#343434;fill-rule:nonzero;"/><path d="M169.23,13.238c1.258,-0.777 2.718,-1.168 4.38,-1.168c1.194,0 2.14,0.325 2.836,0.974c0.695,0.647 1.044,1.617 1.044,2.912l0,5.828l-2.785,0l0,-0.775c-0.812,0.517 -1.542,0.775 -2.19,0.775c-1.329,0 -2.324,-0.275 -2.99,-0.825c-0.663,-0.55 -0.993,-1.312 -0.993,-2.286c0,-0.903 0.314,-1.712 0.942,-2.424c0.627,-0.712 1.64,-1.068 3.041,-1.068c0.644,0 1.373,0.194 2.19,0.581l0,-0.294c-0.013,-0.712 -0.545,-1.099 -1.595,-1.162c-1.195,0 -2.124,0.194 -2.785,0.581l-1.095,-1.649Zm5.475,5.635l0,-1.1c-0.266,-0.499 -0.895,-0.749 -1.889,-0.749c-1.196,0.129 -1.828,0.584 -1.895,1.361c0.067,0.772 0.699,1.187 1.895,1.25c0.994,0 1.623,-0.253 1.889,-0.762Z" style="fill:#343434;fill-rule:nonzero;"/><path d="M184.026,21.784c-1.329,0 -2.491,-0.403 -3.49,-1.212c-0.995,-0.812 -1.492,-1.865 -1.492,-3.161l0,-0.968c0,-1.295 0.497,-2.346 1.492,-3.155c0.999,-0.812 2.165,-1.218 3.496,-1.218c1.591,0 2.915,0.553 3.97,1.656l-1.991,1.455c-0.594,-0.583 -1.255,-0.875 -1.985,-0.875c-0.666,0 -1.249,0.261 -1.748,0.781c-0.496,0.517 -0.743,1.131 -0.743,1.843c0,0.712 0.232,1.328 0.698,1.843c0.464,0.517 1.063,0.774 1.793,0.774c0.73,0 1.391,-0.29 1.985,-0.874l1.991,1.462c-1.059,1.099 -2.385,1.649 -3.976,1.649Z" style="fill:#343434;fill-rule:nonzero;"/><path d="M189.806,7.216l2.984,0l0,8.246l2.856,-3.392l3.355,0l-3.72,4.36l4.719,5.354l-3.88,0l-3.33,-3.873l0,3.873l-2.984,0l0,-14.568Z" style="fill:#343434;fill-rule:nonzero;"/></g></svg>
