<?xml version="1.0" encoding="UTF-8" standalone="no"?>
<!DOCTYPE svg PUBLIC "-//W3C//DTD SVG 1.1//EN" "http://www.w3.org/Graphics/SVG/1.1/DTD/svg11.dtd">
<svg width="100%" height="100%" viewBox="0 0 3100 562" version="1.1" xmlns="http://www.w3.org/2000/svg" xmlns:xlink="http://www.w3.org/1999/xlink" xml:space="preserve" xmlns:serif="http://www.serif.com/" style="fill-rule:evenodd;clip-rule:evenodd;stroke-linejoin:round;stroke-miterlimit:2;">
    <rect id="Artboard1" x="0" y="0" width="3099.21" height="561.025" style="fill:none;"/>
    <g id="Artboard11" serif:id="Artboard1">
        <g transform="matrix(4.16667,0,0,4.16667,0,204.647)">
            <path d="M38.976,14.158L14.205,28.458L14.205,57.07L38.976,71.373L63.754,57.07L63.754,28.458L38.976,14.158ZM38.976,26.109L53.401,34.435L53.401,51.095L38.976,59.421L24.55,51.095L24.55,34.435L38.976,26.109Z" style="fill:rgb(0,123,34);fill-rule:nonzero;"/>
        </g>
        <g transform="matrix(4.16667,0,0,4.16667,0,204.647)">
            <path d="M95.696,14.158L70.92,28.458L70.92,57.07L95.696,71.373L120.466,57.07L120.466,28.458L95.696,14.158ZM95.696,26.109L110.122,34.435L110.122,51.095L95.696,59.421L81.263,51.095L81.263,34.435L95.696,26.109Z" style="fill:rgb(0,169,184);fill-rule:nonzero;"/>
        </g>
        <g transform="matrix(4.16667,0,0,4.16667,0,-204.644)">
            <path d="M67.332,63.273L42.564,77.576L42.564,106.179L67.332,120.488L92.11,106.179L92.11,77.576L67.332,63.273ZM67.332,75.217L81.765,83.551L81.765,100.21L67.332,108.536L52.906,100.21L52.906,83.551L67.332,75.217Z" style="fill:rgb(127,186,44);fill-rule:nonzero;"/>
        </g>
        <g transform="matrix(4.16667,0,0,4.16667,0,0.00125)">
            <path d="M165.748,94.029L165.748,40.617L169.32,40.617L192.454,66.956L215.632,40.617L219.205,40.617L219.205,94.029L208.509,94.029L208.486,63.04L192.454,80.858L176.444,63.04L176.444,94.029L165.748,94.029Z" style="fill:white;fill-rule:nonzero;"/>
        </g>
        <g transform="matrix(4.16667,0,0,4.16667,0,0.00125)">
            <path d="M228.142,94.029L228.142,40.664L267.377,40.617L267.377,50.58L238.815,50.58L238.815,61.986L260.231,61.986L260.231,71.927L238.815,71.927L238.815,84.066L267.308,84.066L267.308,94.029L228.142,94.029Z" style="fill:white;fill-rule:nonzero;"/>
        </g>
        <g transform="matrix(4.16667,0,0,4.16667,0,0.00125)">
            <path d="M287.256,61.986L302.212,61.986C306.501,61.912 308.706,59.948 308.832,56.1C308.706,52.59 306.531,50.763 302.305,50.626L287.256,50.626L287.256,61.986ZM308.718,70.735L322.048,94.029L309.793,94.029L297.014,71.949L287.256,71.949L287.256,94.029L276.56,94.029L276.56,40.617L299.854,40.617C312.313,40.617 318.543,45.747 318.543,56.008C318.543,63.721 315.268,68.629 308.718,70.735Z" style="fill:white;fill-rule:nonzero;"/>
        </g>
        <g transform="matrix(4.16667,0,0,4.16667,0,0.00125)">
            <path d="M349.784,94.029C342.225,93.999 335.887,91.44 330.774,86.355C325.655,81.26 323.1,74.875 323.1,67.208C323.13,59.714 325.695,53.409 330.796,48.29C335.893,43.176 342.225,40.617 349.784,40.617C357.399,40.617 363.938,42.993 369.39,47.741L362.266,55.527C358.647,52.688 354.485,51.268 349.784,51.268C344.985,51.285 341.126,52.779 338.194,55.756C335.262,58.723 333.796,62.513 333.796,67.14C333.808,72.104 335.292,76.049 338.241,78.981C341.183,81.9 345.054,83.356 349.852,83.356C353.699,83.356 356.655,82.594 358.716,81.065L358.716,71.927L351.593,71.949L351.593,61.986L369.39,61.986L369.39,86.905C363.95,91.659 357.417,94.029 349.784,94.029Z" style="fill:white;fill-rule:nonzero;"/>
        </g>
        <g transform="matrix(4.16667,0,0,4.16667,0,0.00125)">
            <path d="M375.728,94.029L397.097,40.617L407.793,40.617L429.116,93.983L417.756,94.029L414.549,85.829L390.341,85.829L387.134,94.029L375.728,94.029ZM402.731,54.863L394.601,75.156L410.632,75.156L402.731,54.863Z" style="fill:white;fill-rule:nonzero;"/>
        </g>
        <g transform="matrix(4.16667,0,0,4.16667,0,-0.187917)">
            <path d="M446.214,83.424L446.214,51.337L456.108,51.337C465.573,51.337 470.319,56.684 470.355,67.368C470.319,78.059 465.573,83.412 456.108,83.424L446.214,83.424ZM456.108,94.074C472.719,94.074 481.027,85.177 481.027,67.368C481.027,49.538 472.719,40.617 456.108,40.617L435.518,40.617L435.518,94.074L456.108,94.074Z" style="fill:white;fill-rule:nonzero;"/>
        </g>
        <g transform="matrix(4.16667,0,0,4.16667,0,0.00125)">
            <path d="M514.925,94.029C507.332,94.029 500.982,91.475 495.869,86.355C490.766,81.242 488.219,74.898 488.219,67.323C488.219,59.72 490.766,53.37 495.869,48.267C500.982,43.172 507.332,40.617 514.925,40.617C522.528,40.617 528.878,43.172 533.98,48.267C539.076,53.37 541.629,59.72 541.629,67.323C541.629,74.916 539.076,81.266 533.98,86.379C528.878,91.481 522.528,94.029 514.925,94.029ZM514.97,84.066C519.689,84.066 523.525,82.462 526.49,79.256C529.469,76.049 530.956,72.075 530.956,67.323C530.956,62.576 529.469,58.597 526.49,55.389C523.525,52.184 519.665,50.58 514.901,50.58C510.167,50.58 506.313,52.184 503.336,55.389C500.369,58.597 498.891,62.576 498.891,67.323C498.891,72.075 500.369,76.049 503.336,79.256C506.313,82.462 510.188,84.066 514.97,84.066Z" style="fill:white;fill-rule:nonzero;"/>
        </g>
        <g transform="matrix(4.16667,0,0,4.16667,0,0.00125)">
            <path d="M571.393,94.029L571.393,40.617L594.686,40.617C607.146,40.617 613.376,45.747 613.376,56.008C613.376,66.635 607.158,71.949 594.732,71.949L582.089,71.949L582.089,94.029L571.393,94.029ZM582.089,61.986L597.045,61.986C601.334,61.912 603.538,59.948 603.664,56.1C603.538,52.59 601.362,50.763 597.137,50.626L582.089,50.626L582.089,61.986Z" style="fill:white;fill-rule:nonzero;"/>
        </g>
        <g transform="matrix(4.16667,0,0,4.16667,0,74.1542)">
            <path d="M619.542,44.9C624.042,42.049 629.265,40.617 635.208,40.617C639.479,40.617 642.864,41.807 645.354,44.189C647.84,46.561 649.088,50.115 649.088,54.863L649.088,76.232L639.124,76.232L639.124,73.391C636.222,75.287 633.61,76.232 631.291,76.232C626.539,76.232 622.978,75.224 620.596,73.208C618.225,71.193 617.046,68.399 617.046,64.826C617.046,61.517 618.167,58.55 620.413,55.939C622.657,53.329 626.281,52.023 631.291,52.023C633.594,52.023 636.204,52.733 639.124,54.152L639.124,53.076C639.079,50.466 637.178,49.045 633.422,48.817C629.145,48.817 625.823,49.526 623.459,50.947L619.542,44.9ZM639.124,65.559L639.124,61.528C638.174,59.696 635.924,58.78 632.368,58.78C628.091,59.255 625.829,60.922 625.589,63.773C625.829,66.602 628.091,68.125 632.368,68.353C635.924,68.353 638.174,67.425 639.124,65.559Z" style="fill:white;fill-rule:nonzero;"/>
        </g>
        <g transform="matrix(4.16667,0,0,4.16667,0,74.1542)">
            <path d="M672.466,76.232C667.714,76.232 663.557,74.755 659.985,71.789C656.423,68.811 654.647,64.953 654.647,60.199L654.647,56.649C654.647,51.902 656.423,48.049 659.985,45.083C663.557,42.106 667.726,40.617 672.49,40.617C678.181,40.617 682.916,42.644 686.689,46.687L679.567,52.023C677.443,49.887 675.078,48.817 672.466,48.817C670.084,48.817 668,49.772 666.214,51.68C664.439,53.575 663.557,55.825 663.557,58.436C663.557,61.046 664.388,63.304 666.053,65.193C667.714,67.088 669.855,68.032 672.466,68.032C675.078,68.032 677.443,66.968 679.567,64.826L686.689,70.186C682.9,74.217 678.158,76.232 672.466,76.232Z" style="fill:white;fill-rule:nonzero;"/>
        </g>
        <g transform="matrix(4.16667,0,0,4.16667,0,0.00125)">
            <path d="M693.143,40.617L703.816,40.617L703.816,70.85L714.031,58.414L726.032,58.414L712.725,74.4L729.606,94.029L715.726,94.029L703.816,79.828L703.816,94.029L693.143,94.029L693.143,40.617Z" style="fill:white;fill-rule:nonzero;"/>
        </g>
    </g>
</svg>
